G04*
G04 #@! TF.GenerationSoftware,Altium Limited,Altium Designer,26.1.1 (7)*
G04*
G04 Layer_Color=8421504*
%FSLAX44Y44*%
%MOMM*%
G71*
G04*
G04 #@! TF.SameCoordinates,B701A36F-903C-45F9-AEE7-9494C8D6E383*
G04*
G04*
G04 #@! TF.FilePolarity,Positive*
G04*
G01*
G75*
G04:AMPARAMS|DCode=17|XSize=1.21mm|YSize=0.59mm|CornerRadius=0.0738mm|HoleSize=0mm|Usage=FLASHONLY|Rotation=90.000|XOffset=0mm|YOffset=0mm|HoleType=Round|Shape=RoundedRectangle|*
%AMROUNDEDRECTD17*
21,1,1.2100,0.4425,0,0,90.0*
21,1,1.0625,0.5900,0,0,90.0*
1,1,0.1475,0.2213,0.5313*
1,1,0.1475,0.2213,-0.5313*
1,1,0.1475,-0.2213,-0.5313*
1,1,0.1475,-0.2213,0.5313*
%
%ADD17ROUNDEDRECTD17*%
G04:AMPARAMS|DCode=18|XSize=1.2mm|YSize=1.82mm|CornerRadius=0.15mm|HoleSize=0mm|Usage=FLASHONLY|Rotation=0.000|XOffset=0mm|YOffset=0mm|HoleType=Round|Shape=RoundedRectangle|*
%AMROUNDEDRECTD18*
21,1,1.2000,1.5200,0,0,0.0*
21,1,0.9000,1.8200,0,0,0.0*
1,1,0.3000,0.4500,-0.7600*
1,1,0.3000,-0.4500,-0.7600*
1,1,0.3000,-0.4500,0.7600*
1,1,0.3000,0.4500,0.7600*
%
%ADD18ROUNDEDRECTD18*%
%ADD19R,1.2500X1.8000*%
G04:AMPARAMS|DCode=20|XSize=0.6mm|YSize=1.35mm|CornerRadius=0.045mm|HoleSize=0mm|Usage=FLASHONLY|Rotation=270.000|XOffset=0mm|YOffset=0mm|HoleType=Round|Shape=RoundedRectangle|*
%AMROUNDEDRECTD20*
21,1,0.6000,1.2600,0,0,270.0*
21,1,0.5100,1.3500,0,0,270.0*
1,1,0.0900,-0.6300,-0.2550*
1,1,0.0900,-0.6300,0.2550*
1,1,0.0900,0.6300,0.2550*
1,1,0.0900,0.6300,-0.2550*
%
%ADD20ROUNDEDRECTD20*%
G04:AMPARAMS|DCode=21|XSize=1.19mm|YSize=0.4mm|CornerRadius=0.1mm|HoleSize=0mm|Usage=FLASHONLY|Rotation=0.000|XOffset=0mm|YOffset=0mm|HoleType=Round|Shape=RoundedRectangle|*
%AMROUNDEDRECTD21*
21,1,1.1900,0.2000,0,0,0.0*
21,1,0.9900,0.4000,0,0,0.0*
1,1,0.2000,0.4950,-0.1000*
1,1,0.2000,-0.4950,-0.1000*
1,1,0.2000,-0.4950,0.1000*
1,1,0.2000,0.4950,0.1000*
%
%ADD21ROUNDEDRECTD21*%
G04:AMPARAMS|DCode=22|XSize=1.2mm|YSize=1.82mm|CornerRadius=0.15mm|HoleSize=0mm|Usage=FLASHONLY|Rotation=90.000|XOffset=0mm|YOffset=0mm|HoleType=Round|Shape=RoundedRectangle|*
%AMROUNDEDRECTD22*
21,1,1.2000,1.5200,0,0,90.0*
21,1,0.9000,1.8200,0,0,90.0*
1,1,0.3000,0.7600,0.4500*
1,1,0.3000,0.7600,-0.4500*
1,1,0.3000,-0.7600,-0.4500*
1,1,0.3000,-0.7600,0.4500*
%
%ADD22ROUNDEDRECTD22*%
G04:AMPARAMS|DCode=23|XSize=1.31mm|YSize=0.62mm|CornerRadius=0.0775mm|HoleSize=0mm|Usage=FLASHONLY|Rotation=0.000|XOffset=0mm|YOffset=0mm|HoleType=Round|Shape=RoundedRectangle|*
%AMROUNDEDRECTD23*
21,1,1.3100,0.4650,0,0,0.0*
21,1,1.1550,0.6200,0,0,0.0*
1,1,0.1550,0.5775,-0.2325*
1,1,0.1550,-0.5775,-0.2325*
1,1,0.1550,-0.5775,0.2325*
1,1,0.1550,0.5775,0.2325*
%
%ADD23ROUNDEDRECTD23*%
G04:AMPARAMS|DCode=24|XSize=2.05mm|YSize=0.59mm|CornerRadius=0.0738mm|HoleSize=0mm|Usage=FLASHONLY|Rotation=180.000|XOffset=0mm|YOffset=0mm|HoleType=Round|Shape=RoundedRectangle|*
%AMROUNDEDRECTD24*
21,1,2.0500,0.4425,0,0,180.0*
21,1,1.9025,0.5900,0,0,180.0*
1,1,0.1475,-0.9513,0.2213*
1,1,0.1475,0.9513,0.2213*
1,1,0.1475,0.9513,-0.2213*
1,1,0.1475,-0.9513,-0.2213*
%
%ADD24ROUNDEDRECTD24*%
G04:AMPARAMS|DCode=25|XSize=0.45mm|YSize=1.05mm|CornerRadius=0.0495mm|HoleSize=0mm|Usage=FLASHONLY|Rotation=180.000|XOffset=0mm|YOffset=0mm|HoleType=Round|Shape=RoundedRectangle|*
%AMROUNDEDRECTD25*
21,1,0.4500,0.9510,0,0,180.0*
21,1,0.3510,1.0500,0,0,180.0*
1,1,0.0990,-0.1755,0.4755*
1,1,0.0990,0.1755,0.4755*
1,1,0.0990,0.1755,-0.4755*
1,1,0.0990,-0.1755,-0.4755*
%
%ADD25ROUNDEDRECTD25*%
%ADD26R,0.6000X1.1500*%
%ADD27R,1.8000X1.2500*%
%ADD28R,0.4500X1.5000*%
%ADD29R,0.3000X1.1500*%
D17*
X298400Y863600D02*
D03*
X279400D02*
D03*
X288900D02*
D03*
X298400Y888700D02*
D03*
X288900D02*
D03*
X279400D02*
D03*
D18*
X344800Y838200D02*
D03*
X315600D02*
D03*
X852800Y914400D02*
D03*
X232400Y838200D02*
D03*
X899800Y609600D02*
D03*
Y279400D02*
D03*
X239400Y914400D02*
D03*
X61600Y609600D02*
D03*
Y304800D02*
D03*
X264800Y838200D02*
D03*
X203200D02*
D03*
X929000Y609600D02*
D03*
X823600Y914400D02*
D03*
X725800Y711200D02*
D03*
X929000Y279400D02*
D03*
X264800Y939800D02*
D03*
X370200Y762000D02*
D03*
X268600Y914400D02*
D03*
X217800Y711200D02*
D03*
X90800Y609600D02*
D03*
X87000Y685800D02*
D03*
X217800Y762000D02*
D03*
X90800Y304800D02*
D03*
X294000Y838200D02*
D03*
X341000Y762000D02*
D03*
X116200Y685800D02*
D03*
X294000Y939800D02*
D03*
X188600Y762000D02*
D03*
X776600Y812800D02*
D03*
X747400D02*
D03*
X696600Y711200D02*
D03*
X188600D02*
D03*
D19*
X371350Y863600D02*
D03*
X339850D02*
D03*
X879350Y787400D02*
D03*
X466850D02*
D03*
X873250Y381000D02*
D03*
X847850Y50800D02*
D03*
X193550Y812800D02*
D03*
X60450Y381000D02*
D03*
X720850Y914400D02*
D03*
X136650Y863600D02*
D03*
X60450D02*
D03*
X91950D02*
D03*
X168150D02*
D03*
X371350Y914400D02*
D03*
X339850D02*
D03*
X91950Y381000D02*
D03*
X904750D02*
D03*
X847850Y787400D02*
D03*
X162050Y812800D02*
D03*
X924050Y787400D02*
D03*
X955550D02*
D03*
X752350Y914400D02*
D03*
X726950Y762000D02*
D03*
X879350Y50800D02*
D03*
X695450Y762000D02*
D03*
X498350Y787400D02*
D03*
D20*
X303100D02*
D03*
Y768400D02*
D03*
X279400D02*
D03*
Y777900D02*
D03*
Y787400D02*
D03*
D21*
X796290Y871220D02*
D03*
X778510Y863600D02*
D03*
Y871220D02*
D03*
X796290Y855980D02*
D03*
X778510D02*
D03*
D22*
X508000Y903600D02*
D03*
X558800Y725800D02*
D03*
X431800Y725800D02*
D03*
X330200D02*
D03*
X508000Y874400D02*
D03*
X558800Y696600D02*
D03*
X330200Y696600D02*
D03*
X431800D02*
D03*
X812800Y772800D02*
D03*
Y802000D02*
D03*
X736600Y878200D02*
D03*
Y849000D02*
D03*
D23*
X484700Y933450D02*
D03*
X429700D02*
D03*
Y895350D02*
D03*
Y869950D02*
D03*
Y882650D02*
D03*
Y920750D02*
D03*
Y908050D02*
D03*
Y857250D02*
D03*
Y844550D02*
D03*
X484700D02*
D03*
Y857250D02*
D03*
Y869950D02*
D03*
Y882650D02*
D03*
Y895350D02*
D03*
Y908050D02*
D03*
Y920750D02*
D03*
D24*
X867850Y501650D02*
D03*
Y171450D02*
D03*
X50800Y508000D02*
D03*
X55050Y171450D02*
D03*
X960950Y476250D02*
D03*
Y539750D02*
D03*
Y146050D02*
D03*
Y209550D02*
D03*
X148150D02*
D03*
Y146050D02*
D03*
X143900Y546100D02*
D03*
Y482600D02*
D03*
X148150Y184150D02*
D03*
X55050Y209550D02*
D03*
X148150Y222250D02*
D03*
X55050Y120650D02*
D03*
Y196850D02*
D03*
Y133350D02*
D03*
X148150Y158750D02*
D03*
Y196850D02*
D03*
Y171450D02*
D03*
Y120650D02*
D03*
X55050Y146050D02*
D03*
Y158750D02*
D03*
Y234950D02*
D03*
X148150D02*
D03*
X55050Y222250D02*
D03*
X148150Y133350D02*
D03*
X143900Y444500D02*
D03*
X50800Y520700D02*
D03*
X143900Y469900D02*
D03*
X50800Y546100D02*
D03*
X143900Y533400D02*
D03*
Y520700D02*
D03*
X50800Y495300D02*
D03*
Y571500D02*
D03*
Y558800D02*
D03*
X143900Y495300D02*
D03*
Y508000D02*
D03*
X50800Y457200D02*
D03*
X143900Y571500D02*
D03*
X50800Y482600D02*
D03*
X143900Y558800D02*
D03*
Y457200D02*
D03*
X50800Y533400D02*
D03*
Y469900D02*
D03*
X143900Y584200D02*
D03*
X50800Y444500D02*
D03*
Y584200D02*
D03*
X960950Y438150D02*
D03*
X55050Y247650D02*
D03*
X867850D02*
D03*
Y577850D02*
D03*
X148150Y247650D02*
D03*
X960950D02*
D03*
Y577850D02*
D03*
X867850Y450850D02*
D03*
Y463550D02*
D03*
Y476250D02*
D03*
Y488950D02*
D03*
Y514350D02*
D03*
Y527050D02*
D03*
Y539750D02*
D03*
Y552450D02*
D03*
Y565150D02*
D03*
X960950D02*
D03*
Y552450D02*
D03*
Y527050D02*
D03*
Y514350D02*
D03*
Y501650D02*
D03*
Y488950D02*
D03*
Y463550D02*
D03*
Y450850D02*
D03*
X867850Y438150D02*
D03*
X148150Y107950D02*
D03*
X960950Y196850D02*
D03*
Y222250D02*
D03*
Y120650D02*
D03*
X867850Y222250D02*
D03*
Y146050D02*
D03*
X960950Y158750D02*
D03*
Y171450D02*
D03*
X867850Y234950D02*
D03*
X960950D02*
D03*
X867850Y158750D02*
D03*
Y209550D02*
D03*
X960950Y184150D02*
D03*
X867850Y120650D02*
D03*
Y196850D02*
D03*
X960950Y133350D02*
D03*
X867850D02*
D03*
Y107950D02*
D03*
Y184150D02*
D03*
X960950Y107950D02*
D03*
X55050D02*
D03*
Y184150D02*
D03*
D25*
X501500Y723450D02*
D03*
X272900D02*
D03*
X374500D02*
D03*
X515366Y699008D02*
D03*
X500634D02*
D03*
X286766D02*
D03*
X272034D02*
D03*
X373634D02*
D03*
X388366D02*
D03*
X387500Y723450D02*
D03*
X285900D02*
D03*
X514500D02*
D03*
X381000Y699008D02*
D03*
X279400D02*
D03*
X508000D02*
D03*
D26*
X201800Y917650D02*
D03*
X153800D02*
D03*
X209800D02*
D03*
X145800D02*
D03*
D27*
X127000Y35050D02*
D03*
X635000Y695450D02*
D03*
X914400Y822450D02*
D03*
X635000Y726950D02*
D03*
X127000Y66550D02*
D03*
X914400Y853950D02*
D03*
D28*
X106680Y734060D02*
D03*
X121920D02*
D03*
X60960Y789940D02*
D03*
X68580D02*
D03*
X83820D02*
D03*
X91440D02*
D03*
X99060D02*
D03*
X114300D02*
D03*
X121920D02*
D03*
X129540D02*
D03*
Y734060D02*
D03*
X114300D02*
D03*
X99060D02*
D03*
X91440D02*
D03*
X76200D02*
D03*
X68580D02*
D03*
X60960D02*
D03*
X76200Y789940D02*
D03*
X83820Y734060D02*
D03*
X106680Y789940D02*
D03*
D29*
X170300Y917650D02*
D03*
X175300D02*
D03*
X180300D02*
D03*
X185300D02*
D03*
X195300D02*
D03*
X190300D02*
D03*
X160300D02*
D03*
X165300D02*
D03*
M02*
