G04*
G04 #@! TF.GenerationSoftware,Altium Limited,Altium Designer,26.1.1 (7)*
G04*
G04 Layer_Physical_Order=2*
G04 Layer_Color=16711680*
%FSLAX44Y44*%
%MOMM*%
G71*
G04*
G04 #@! TF.SameCoordinates,B701A36F-903C-45F9-AEE7-9494C8D6E383*
G04*
G04*
G04 #@! TF.FilePolarity,Positive*
G04*
G01*
G75*
%ADD46C,1.0000*%
%ADD48R,1.4500X1.4500*%
%ADD50C,1.4500*%
%ADD54R,1.0000X1.0000*%
%ADD56C,0.5080*%
%ADD57C,0.3810*%
%ADD59O,1.0000X2.1000*%
%ADD60O,1.0000X1.8000*%
%ADD61C,1.6500*%
G04:AMPARAMS|DCode=62|XSize=1.65mm|YSize=1.65mm|CornerRadius=0.4125mm|HoleSize=0mm|Usage=FLASHONLY|Rotation=180.000|XOffset=0mm|YOffset=0mm|HoleType=Round|Shape=RoundedRectangle|*
%AMROUNDEDRECTD62*
21,1,1.6500,0.8250,0,0,180.0*
21,1,0.8250,1.6500,0,0,180.0*
1,1,0.8250,-0.4125,0.4125*
1,1,0.8250,0.4125,0.4125*
1,1,0.8250,0.4125,-0.4125*
1,1,0.8250,-0.4125,-0.4125*
%
%ADD62ROUNDEDRECTD62*%
%ADD63C,0.6500*%
%ADD64C,1.6510*%
%ADD65R,1.6510X1.6510*%
%ADD66C,0.6350*%
%ADD67C,0.5080*%
%ADD68C,0.7620*%
G36*
X960000Y977410D02*
Y977410D01*
X962463Y977224D01*
X964289Y977080D01*
X968473Y976076D01*
X972447Y974429D01*
X976116Y972181D01*
X979387Y969387D01*
X982181Y966116D01*
X984429Y962447D01*
X986076Y958473D01*
X987080Y954289D01*
X987224Y952463D01*
X987410Y950000D01*
X987410Y950000D01*
X987410Y947460D01*
Y32540D01*
X987410Y30000D01*
X987224Y27537D01*
X987080Y25711D01*
X986076Y21528D01*
X984429Y17553D01*
X982181Y13884D01*
X979387Y10613D01*
X976116Y7819D01*
X972447Y5571D01*
X968473Y3924D01*
X964289Y2920D01*
X960026Y2585D01*
X960000Y2590D01*
X30000D01*
X29974Y2585D01*
X25711Y2920D01*
X21528Y3924D01*
X17553Y5571D01*
X13884Y7819D01*
X10613Y10613D01*
X7819Y13884D01*
X5571Y17553D01*
X3924Y21528D01*
X2920Y25711D01*
X2585Y29974D01*
X2590Y30000D01*
Y55880D01*
Y58420D01*
Y950000D01*
X2585Y950026D01*
X2920Y954289D01*
X3924Y958473D01*
X5571Y962447D01*
X7819Y966116D01*
X10613Y969387D01*
X13884Y972181D01*
X17553Y974429D01*
X21528Y976076D01*
X25711Y977080D01*
X27537Y977224D01*
X30000Y977410D01*
Y977410D01*
X30000Y977410D01*
X128742D01*
X129604Y974870D01*
X129223Y974578D01*
X128014Y973002D01*
X127254Y971168D01*
X126995Y969200D01*
Y966470D01*
X134600D01*
X142205D01*
Y969200D01*
X141946Y971168D01*
X141186Y973002D01*
X139978Y974578D01*
X139596Y974870D01*
X140458Y977410D01*
X215142D01*
X216004Y974870D01*
X215623Y974578D01*
X214414Y973002D01*
X213654Y971168D01*
X213395Y969200D01*
Y966470D01*
X221000D01*
X228605D01*
Y969200D01*
X228346Y971168D01*
X227586Y973002D01*
X226378Y974578D01*
X225996Y974870D01*
X226859Y977410D01*
X957460D01*
X960000Y977410D01*
D02*
G37*
%LPC*%
G36*
X44450Y969051D02*
X39347Y968649D01*
X34370Y967454D01*
X29641Y965495D01*
X25276Y962821D01*
X21384Y959496D01*
X18059Y955604D01*
X15385Y951239D01*
X13426Y946510D01*
X12231Y941533D01*
X11829Y936430D01*
X12231Y931327D01*
X13426Y926350D01*
X15385Y921621D01*
X18059Y917256D01*
X21384Y913364D01*
X25276Y910039D01*
X29641Y907365D01*
X34370Y905406D01*
X39347Y904211D01*
X44450Y903809D01*
X49553Y904211D01*
X54530Y905406D01*
X59259Y907365D01*
X61376Y908662D01*
X62960Y906653D01*
X22653Y866347D01*
X21811Y865087D01*
X21515Y863600D01*
Y714176D01*
X21811Y712689D01*
X22653Y711429D01*
X40696Y693386D01*
X41957Y692544D01*
X43443Y692248D01*
X66620D01*
X68106Y692544D01*
X69367Y693386D01*
X73186Y697206D01*
X74539Y697766D01*
X75790Y699016D01*
X76466Y700650D01*
Y702418D01*
X75790Y704052D01*
X74539Y705303D01*
X72906Y705979D01*
X71137D01*
X69503Y705303D01*
X68253Y704052D01*
X67693Y702699D01*
X65011Y700017D01*
X45052D01*
X29285Y715785D01*
Y861991D01*
X114698Y947404D01*
X392704D01*
X405023Y935085D01*
X405583Y933733D01*
X406833Y932482D01*
X408467Y931805D01*
X410235D01*
X411869Y932482D01*
X413119Y933733D01*
X413796Y935366D01*
Y937135D01*
X413119Y938768D01*
X411869Y940019D01*
X410516Y940579D01*
X397060Y954035D01*
X395799Y954878D01*
X394313Y955173D01*
X229081D01*
X228162Y956541D01*
X227717Y957713D01*
X228346Y959232D01*
X228605Y961200D01*
Y963930D01*
X221000D01*
X213395D01*
Y961200D01*
X213654Y959232D01*
X214283Y957713D01*
X213839Y956541D01*
X212919Y955173D01*
X142681D01*
X141762Y956541D01*
X141317Y957713D01*
X141946Y959232D01*
X142205Y961200D01*
Y963930D01*
X134600D01*
X126995D01*
Y961200D01*
X127254Y959232D01*
X127883Y957713D01*
X127439Y956541D01*
X126519Y955173D01*
X113089D01*
X111602Y954878D01*
X110342Y954035D01*
X74227Y917920D01*
X72218Y919504D01*
X73515Y921621D01*
X75474Y926350D01*
X76669Y931327D01*
X77071Y936430D01*
X76669Y941533D01*
X75474Y946510D01*
X73515Y951239D01*
X70841Y955604D01*
X67516Y959496D01*
X63624Y962821D01*
X59259Y965495D01*
X54530Y967454D01*
X49553Y968649D01*
X44450Y969051D01*
D02*
G37*
G36*
X228605Y922130D02*
X222270D01*
Y910462D01*
X222969Y910554D01*
X224803Y911314D01*
X226378Y912523D01*
X227586Y914098D01*
X228346Y915932D01*
X228605Y917900D01*
Y922130D01*
D02*
G37*
G36*
X142205D02*
X135870D01*
Y910462D01*
X136568Y910554D01*
X138403Y911314D01*
X139978Y912523D01*
X141186Y914098D01*
X141946Y915932D01*
X142205Y917900D01*
Y922130D01*
D02*
G37*
G36*
X219730D02*
X213395D01*
Y917900D01*
X213654Y915932D01*
X214414Y914098D01*
X215623Y912523D01*
X217198Y911314D01*
X219032Y910554D01*
X219730Y910462D01*
Y922130D01*
D02*
G37*
G36*
X133330D02*
X126995D01*
Y917900D01*
X127254Y915932D01*
X128014Y914098D01*
X129223Y912523D01*
X130798Y911314D01*
X132632Y910554D01*
X133330Y910462D01*
Y922130D01*
D02*
G37*
G36*
X380354Y943685D02*
X127000D01*
X125513Y943389D01*
X124253Y942547D01*
X48053Y866347D01*
X47211Y865087D01*
X46915Y863600D01*
Y723806D01*
X47211Y722319D01*
X48053Y721059D01*
X59814Y709298D01*
X60374Y707946D01*
X61624Y706695D01*
X63258Y706019D01*
X65027D01*
X66660Y706695D01*
X67911Y707946D01*
X68587Y709579D01*
Y711348D01*
X67911Y712981D01*
X66660Y714232D01*
X65307Y714792D01*
X54685Y725415D01*
Y861991D01*
X125172Y932478D01*
X127325Y931039D01*
X127254Y930869D01*
X126995Y928900D01*
Y924670D01*
X134600D01*
X142205D01*
Y926114D01*
X144745Y926619D01*
X145068Y925840D01*
X146340Y924568D01*
X148001Y923880D01*
X149799D01*
X151460Y924568D01*
X152732Y925840D01*
X153420Y927501D01*
Y929299D01*
X152732Y930960D01*
X151460Y932232D01*
X149799Y932920D01*
X148001D01*
X146340Y932232D01*
X145068Y930960D01*
X144634Y929912D01*
X142033Y930207D01*
X141946Y930869D01*
X141186Y932703D01*
X140670Y933375D01*
X141835Y935915D01*
X161877D01*
X162849Y933569D01*
X160719Y931439D01*
X160017Y930389D01*
X159771Y929150D01*
Y902583D01*
X160017Y901345D01*
X160719Y900294D01*
X174563Y886451D01*
Y873800D01*
X174809Y872562D01*
X175511Y871511D01*
X178455Y868567D01*
Y867816D01*
X179132Y866182D01*
X180382Y864932D01*
X182016Y864255D01*
X183784D01*
X185418Y864932D01*
X186668Y866182D01*
X187345Y867816D01*
Y869584D01*
X186668Y871218D01*
X185418Y872468D01*
X183784Y873145D01*
X183033D01*
X181037Y875141D01*
Y887792D01*
X180791Y889030D01*
X180089Y890081D01*
X166245Y903924D01*
Y927809D01*
X168966Y930530D01*
X186230D01*
X186327Y930465D01*
X186430Y930218D01*
X187680Y928968D01*
X189314Y928291D01*
X191082D01*
X192716Y928968D01*
X193966Y930218D01*
X194643Y931852D01*
Y933620D01*
X196441Y935915D01*
X213766D01*
X214930Y933375D01*
X214414Y932703D01*
X213654Y930869D01*
X213567Y930203D01*
X210966Y929911D01*
X210532Y930960D01*
X209261Y932232D01*
X207599Y932920D01*
X205801D01*
X204140Y932232D01*
X202868Y930960D01*
X202180Y929299D01*
Y927501D01*
X202868Y925840D01*
X204140Y924568D01*
X205801Y923880D01*
X207599D01*
X209261Y924568D01*
X210532Y925840D01*
X210855Y926620D01*
X213395Y926115D01*
Y924670D01*
X221000D01*
X228605D01*
Y928900D01*
X228346Y930869D01*
X227586Y932703D01*
X227070Y933375D01*
X228235Y935915D01*
X378745D01*
X405605Y909055D01*
X406256Y907484D01*
X407506Y906234D01*
X409140Y905557D01*
X410908D01*
X412542Y906234D01*
X413792Y907484D01*
X414469Y909118D01*
Y910886D01*
X413792Y912520D01*
X412542Y913770D01*
X411407Y914240D01*
X383101Y942547D01*
X381841Y943389D01*
X380354Y943685D01*
D02*
G37*
G36*
X943260Y966511D02*
X938157Y966109D01*
X933180Y964914D01*
X928451Y962955D01*
X924086Y960281D01*
X920194Y956956D01*
X916869Y953064D01*
X914195Y948699D01*
X912236Y943970D01*
X911041Y938993D01*
X910639Y933890D01*
X911041Y928787D01*
X912236Y923810D01*
X914195Y919081D01*
X916869Y914716D01*
X920194Y910824D01*
X924086Y907499D01*
X928451Y904825D01*
X933180Y902866D01*
X938157Y901671D01*
X943260Y901269D01*
X948363Y901671D01*
X953340Y902866D01*
X958069Y904825D01*
X962434Y907499D01*
X966326Y910824D01*
X969651Y914716D01*
X972325Y919081D01*
X974284Y923810D01*
X975479Y928787D01*
X975881Y933890D01*
X975479Y938993D01*
X974284Y943970D01*
X972325Y948699D01*
X969651Y953064D01*
X966326Y956956D01*
X962434Y960281D01*
X958069Y962955D01*
X953340Y964914D01*
X948363Y966109D01*
X943260Y966511D01*
D02*
G37*
G36*
X623721Y872090D02*
X623570D01*
Y862570D01*
X633090D01*
Y862720D01*
X632355Y865465D01*
X630934Y867925D01*
X628925Y869934D01*
X626465Y871355D01*
X623721Y872090D01*
D02*
G37*
G36*
X621030D02*
X620880D01*
X618135Y871355D01*
X615675Y869934D01*
X613666Y867925D01*
X612245Y865465D01*
X611510Y862720D01*
Y862570D01*
X621030D01*
Y872090D01*
D02*
G37*
G36*
X940684Y868045D02*
X938916D01*
X937563Y867485D01*
X812800D01*
X811313Y867189D01*
X810053Y866347D01*
X797189Y853483D01*
X780747D01*
X779394Y854043D01*
X777626D01*
X775992Y853366D01*
X774742Y852116D01*
X774181Y850763D01*
X759253Y835835D01*
X758411Y834575D01*
X758115Y833088D01*
Y787400D01*
X758190Y787025D01*
Y786642D01*
X758336Y786289D01*
X758411Y785913D01*
X758624Y785595D01*
X758770Y785242D01*
X759041Y784971D01*
X759253Y784653D01*
X759571Y784441D01*
X759842Y784170D01*
X760195Y784024D01*
X760513Y783811D01*
X760889Y783736D01*
X761242Y783590D01*
X761625D01*
X762000Y783515D01*
X762375Y783590D01*
X762758D01*
X763111Y783736D01*
X763487Y783811D01*
X763805Y784024D01*
X764158Y784170D01*
X764429Y784441D01*
X764747Y784653D01*
X764959Y784971D01*
X765230Y785242D01*
X765376Y785595D01*
X765589Y785913D01*
X765664Y786289D01*
X765810Y786642D01*
Y787025D01*
X765885Y787400D01*
Y831479D01*
X779675Y845269D01*
X780747Y845714D01*
X798798D01*
X800285Y846009D01*
X801545Y846851D01*
X814409Y859715D01*
X937563D01*
X938916Y859155D01*
X940684D01*
X942318Y859832D01*
X943568Y861082D01*
X944245Y862716D01*
Y864484D01*
X943568Y866118D01*
X942318Y867368D01*
X940684Y868045D01*
D02*
G37*
G36*
X303350Y913992D02*
X301582D01*
X299948Y913316D01*
X298698Y912065D01*
X298021Y910432D01*
Y908663D01*
X298698Y907029D01*
X299948Y905779D01*
X301582Y905102D01*
X303350D01*
X304703Y905663D01*
X306670D01*
X307743Y904589D01*
Y872236D01*
X308039Y870750D01*
X308881Y869490D01*
X315960Y862410D01*
X316521Y861057D01*
X317771Y859807D01*
X319405Y859130D01*
X321173D01*
X322807Y859807D01*
X324057Y861057D01*
X324734Y862691D01*
Y864459D01*
X324057Y866093D01*
X322807Y867344D01*
X321454Y867904D01*
X315512Y873846D01*
Y906198D01*
X315217Y907685D01*
X314375Y908945D01*
X311026Y912294D01*
X309765Y913136D01*
X308279Y913432D01*
X304703D01*
X303350Y913992D01*
D02*
G37*
G36*
X648953Y870820D02*
X646447D01*
X644025Y870171D01*
X641855Y868918D01*
X640082Y867145D01*
X638829Y864974D01*
X638180Y862553D01*
Y860046D01*
X638829Y857625D01*
X640082Y855454D01*
X641855Y853682D01*
X644025Y852429D01*
X646447Y851780D01*
X648953D01*
X651375Y852429D01*
X653545Y853682D01*
X655318Y855454D01*
X656571Y857625D01*
X657220Y860046D01*
Y862553D01*
X656571Y864974D01*
X655318Y867145D01*
X653545Y868918D01*
X651375Y870171D01*
X648953Y870820D01*
D02*
G37*
G36*
X598153D02*
X595647D01*
X593225Y870171D01*
X591055Y868918D01*
X589282Y867145D01*
X588029Y864974D01*
X587380Y862553D01*
Y860046D01*
X588029Y857625D01*
X589282Y855454D01*
X591055Y853682D01*
X593225Y852429D01*
X595647Y851780D01*
X598153D01*
X600575Y852429D01*
X602745Y853682D01*
X604518Y855454D01*
X605771Y857625D01*
X606420Y860046D01*
Y862553D01*
X605771Y864974D01*
X604518Y867145D01*
X602745Y868918D01*
X600575Y870171D01*
X598153Y870820D01*
D02*
G37*
G36*
X575625Y870926D02*
X567375D01*
X565270Y870507D01*
X563485Y869314D01*
X562293Y867530D01*
X561874Y865425D01*
Y857175D01*
X561875Y857169D01*
X531286Y826580D01*
X454586D01*
X453100Y826284D01*
X451839Y825442D01*
X427097Y800700D01*
X423923D01*
X422570Y801260D01*
X420802D01*
X419168Y800583D01*
X417917Y799333D01*
X417241Y797699D01*
Y795931D01*
X417917Y794297D01*
X419168Y793047D01*
X420802Y792370D01*
X422570D01*
X423923Y792931D01*
X428245D01*
X429010Y791825D01*
X429381Y790475D01*
X424302Y785396D01*
X195470D01*
X194117Y785957D01*
X192349D01*
X190715Y785280D01*
X189465Y784029D01*
X188788Y782396D01*
Y780627D01*
X189465Y778994D01*
X190715Y777743D01*
X192349Y777067D01*
X194117D01*
X195470Y777627D01*
X425912D01*
X427398Y777923D01*
X428658Y778765D01*
X458809Y808915D01*
X531791D01*
X579349Y761357D01*
X580609Y760515D01*
X582096Y760219D01*
X586304D01*
X587791Y760515D01*
X589051Y761357D01*
X612347Y784653D01*
X613189Y785913D01*
X613485Y787400D01*
Y835963D01*
X614045Y837316D01*
Y839084D01*
X613368Y840718D01*
X612118Y841968D01*
X610484Y842645D01*
X608716D01*
X607082Y841968D01*
X605832Y840718D01*
X605155Y839084D01*
Y837316D01*
X605715Y835963D01*
Y789009D01*
X584695Y767989D01*
X583705D01*
X536147Y815547D01*
X534887Y816389D01*
X534314Y816503D01*
Y819093D01*
X534382Y819106D01*
X535642Y819948D01*
X567369Y851675D01*
X567375Y851674D01*
X575625D01*
X577730Y852093D01*
X579515Y853285D01*
X580707Y855070D01*
X581126Y857175D01*
Y865425D01*
X580707Y867530D01*
X579515Y869314D01*
X577730Y870507D01*
X575625Y870926D01*
D02*
G37*
G36*
X633090Y860030D02*
X623570D01*
Y850510D01*
X623721D01*
X626465Y851245D01*
X628925Y852666D01*
X630934Y854675D01*
X632355Y857135D01*
X633090Y859879D01*
Y860030D01*
D02*
G37*
G36*
X621030D02*
X611510D01*
Y859879D01*
X612245Y857135D01*
X613666Y854675D01*
X615675Y852666D01*
X618135Y851245D01*
X620880Y850510D01*
X621030D01*
Y860030D01*
D02*
G37*
G36*
X889884Y842645D02*
X888116D01*
X886763Y842085D01*
X863600D01*
X862113Y841789D01*
X860853Y840947D01*
X837035Y817129D01*
X835682Y816568D01*
X834432Y815318D01*
X833755Y813684D01*
Y811916D01*
X834432Y810282D01*
X835682Y809032D01*
X837316Y808355D01*
X839084D01*
X840718Y809032D01*
X841968Y810282D01*
X842529Y811635D01*
X865209Y834315D01*
X886763D01*
X888116Y833755D01*
X889884D01*
X891518Y834432D01*
X892768Y835682D01*
X893445Y837316D01*
Y839084D01*
X892768Y840718D01*
X891518Y841968D01*
X889884Y842645D01*
D02*
G37*
G36*
X416190Y822590D02*
X407670D01*
Y814070D01*
X416190D01*
Y822590D01*
D02*
G37*
G36*
X405130D02*
X396610D01*
Y814070D01*
X405130D01*
Y822590D01*
D02*
G37*
G36*
X183750Y842762D02*
X181981D01*
X180348Y842085D01*
X179097Y840835D01*
X178421Y839201D01*
Y837433D01*
X178665Y836842D01*
X177349Y834436D01*
X177177Y834302D01*
X102867D01*
X101380Y834006D01*
X100120Y833164D01*
X97628Y830673D01*
X96276Y830112D01*
X95025Y828862D01*
X94349Y827228D01*
Y825460D01*
X95025Y823826D01*
X96276Y822576D01*
X97909Y821899D01*
X99678D01*
X101312Y822576D01*
X102562Y823826D01*
X103122Y825179D01*
X104476Y826533D01*
X204310D01*
X225594Y805248D01*
Y804535D01*
X223795Y802242D01*
X215112D01*
X213625Y801946D01*
X212694Y801324D01*
X212405D01*
X210772Y800647D01*
X209521Y799397D01*
X208845Y797763D01*
Y795995D01*
X209521Y794361D01*
X210772Y793111D01*
X212405Y792434D01*
X214174D01*
X215807Y793111D01*
X217058Y794361D01*
X217104Y794473D01*
X334595D01*
X334667Y794298D01*
X335918Y793048D01*
X337551Y792371D01*
X339320D01*
X340954Y793048D01*
X342204Y794298D01*
X342881Y795932D01*
Y797701D01*
X342204Y799334D01*
X340954Y800585D01*
X339320Y801261D01*
X339063D01*
X338037Y801946D01*
X336551Y802242D01*
X236284D01*
X234484Y804535D01*
Y806303D01*
X233808Y807937D01*
X232557Y809187D01*
X232450Y809231D01*
X232151Y809678D01*
X210406Y831423D01*
X211458Y833963D01*
X217430D01*
X241341Y810053D01*
X242601Y809211D01*
X244087Y808915D01*
X355600D01*
X355975Y808990D01*
X356358D01*
X356711Y809136D01*
X357087Y809211D01*
X357405Y809424D01*
X357758Y809570D01*
X358029Y809841D01*
X358347Y810053D01*
X358559Y810371D01*
X358830Y810642D01*
X358976Y810995D01*
X359189Y811313D01*
X359264Y811689D01*
X359410Y812042D01*
Y812425D01*
X359485Y812800D01*
X359410Y813175D01*
Y813558D01*
X359264Y813911D01*
X359189Y814287D01*
X358976Y814605D01*
X358830Y814958D01*
X358559Y815229D01*
X358347Y815547D01*
X358029Y815759D01*
X357758Y816030D01*
X357405Y816176D01*
X357087Y816389D01*
X356711Y816464D01*
X356358Y816610D01*
X355975D01*
X355600Y816685D01*
X245697D01*
X221786Y840595D01*
X220526Y841437D01*
X219039Y841733D01*
X185736D01*
X185383Y842085D01*
X183750Y842762D01*
D02*
G37*
G36*
X382122Y821320D02*
X379878D01*
X377711Y820739D01*
X375769Y819618D01*
X374182Y818031D01*
X373061Y816089D01*
X372480Y813922D01*
Y811678D01*
X373061Y809511D01*
X374182Y807569D01*
X375769Y805982D01*
X377711Y804861D01*
X379878Y804280D01*
X382122D01*
X384289Y804861D01*
X386231Y805982D01*
X387818Y807569D01*
X388939Y809511D01*
X389520Y811678D01*
Y813922D01*
X388939Y816089D01*
X387818Y818031D01*
X386231Y819618D01*
X384289Y820739D01*
X382122Y821320D01*
D02*
G37*
G36*
X416190Y811530D02*
X407670D01*
Y803010D01*
X416190D01*
Y811530D01*
D02*
G37*
G36*
X405130D02*
X396610D01*
Y803010D01*
X405130D01*
Y811530D01*
D02*
G37*
G36*
X585084Y842645D02*
X583316D01*
X581682Y841968D01*
X580432Y840718D01*
X579755Y839084D01*
Y837316D01*
X580315Y835963D01*
Y789637D01*
X579755Y788284D01*
Y786516D01*
X580432Y784882D01*
X581682Y783632D01*
X583316Y782955D01*
X585084D01*
X586718Y783632D01*
X587968Y784882D01*
X588645Y786516D01*
Y788284D01*
X588085Y789637D01*
Y835963D01*
X588645Y837316D01*
Y839084D01*
X587968Y840718D01*
X586718Y841968D01*
X585084Y842645D01*
D02*
G37*
G36*
X661284D02*
X659516D01*
X657882Y841968D01*
X656632Y840718D01*
X655955Y839084D01*
Y837316D01*
X656515Y835963D01*
Y789009D01*
X632253Y764747D01*
X619389Y751883D01*
X581642D01*
X568778Y764747D01*
X567518Y765589D01*
X566031Y765885D01*
X558800D01*
X558425Y765810D01*
X558042D01*
X557689Y765664D01*
X557313Y765589D01*
X556995Y765376D01*
X556642Y765230D01*
X556371Y764959D01*
X556053Y764747D01*
X555841Y764429D01*
X555570Y764158D01*
X555424Y763805D01*
X555211Y763487D01*
X555136Y763111D01*
X554990Y762758D01*
Y762375D01*
X554915Y762000D01*
X554990Y761625D01*
Y761242D01*
X555136Y760889D01*
X555211Y760513D01*
X555424Y760195D01*
X555570Y759842D01*
X555841Y759571D01*
X556053Y759253D01*
X556371Y759041D01*
X556642Y758770D01*
X556995Y758624D01*
X557313Y758411D01*
X557689Y758336D01*
X558042Y758190D01*
X558425D01*
X558800Y758115D01*
X564422D01*
X577286Y745251D01*
X578546Y744409D01*
X580033Y744113D01*
X620998D01*
X622485Y744409D01*
X623745Y745251D01*
X637747Y759253D01*
X663147Y784653D01*
X663989Y785913D01*
X664285Y787400D01*
Y835963D01*
X664845Y837316D01*
Y839084D01*
X664168Y840718D01*
X662918Y841968D01*
X661284Y842645D01*
D02*
G37*
G36*
X813684Y848963D02*
X811916D01*
X810282Y848286D01*
X809032Y847036D01*
X808471Y845683D01*
X784653Y821865D01*
X783811Y820605D01*
X783515Y819118D01*
Y815037D01*
X782955Y813684D01*
Y811916D01*
X783515Y810563D01*
Y789009D01*
X734991Y740485D01*
X535009D01*
X510747Y764747D01*
X509487Y765589D01*
X508000Y765885D01*
X190353D01*
X145771Y810467D01*
X144511Y811309D01*
X143024Y811605D01*
X108917D01*
X107564Y812165D01*
X105796D01*
X104162Y811488D01*
X102912Y810238D01*
X102235Y808604D01*
Y806836D01*
X102912Y805202D01*
X104162Y803952D01*
X105796Y803275D01*
X107564D01*
X108917Y803835D01*
X141415D01*
X185997Y759253D01*
X187257Y758411D01*
X188744Y758115D01*
X475755D01*
X476727Y755769D01*
X469197Y748239D01*
X227637D01*
X226285Y748800D01*
X224516D01*
X222882Y748123D01*
X221632Y746872D01*
X220955Y745239D01*
Y743470D01*
X221140Y743025D01*
X219674Y740500D01*
X219652Y740485D01*
X154009D01*
X85004Y809490D01*
Y816631D01*
X85564Y817984D01*
Y819752D01*
X84887Y821386D01*
X83637Y822636D01*
X82003Y823313D01*
X80235D01*
X78601Y822636D01*
X77351Y821386D01*
X76674Y819752D01*
Y817984D01*
X77234Y816631D01*
Y807881D01*
X77530Y806395D01*
X78372Y805134D01*
X149653Y733853D01*
X150913Y733011D01*
X152400Y732715D01*
X252391D01*
X302053Y683053D01*
X303313Y682211D01*
X304800Y681915D01*
X353363D01*
X354716Y681355D01*
X356484D01*
X358118Y682032D01*
X359368Y683282D01*
X360045Y684916D01*
Y686684D01*
X359368Y688318D01*
X358118Y689568D01*
X356484Y690245D01*
X354716D01*
X353363Y689685D01*
X306409D01*
X258164Y737930D01*
X259216Y740470D01*
X470806D01*
X472293Y740766D01*
X473553Y741608D01*
X484849Y752903D01*
X485061Y753221D01*
X485332Y753492D01*
X485478Y753845D01*
X485691Y754163D01*
X485765Y754539D01*
X485912Y754892D01*
Y755275D01*
X485986Y755650D01*
X486921Y757356D01*
X487445Y757847D01*
X487793Y758073D01*
X487889Y758115D01*
X506391D01*
X530653Y733853D01*
X531913Y733011D01*
X533400Y732715D01*
X736600D01*
X738087Y733011D01*
X739347Y733853D01*
X790147Y784653D01*
X790989Y785913D01*
X791285Y787400D01*
Y810563D01*
X791845Y811916D01*
Y813684D01*
X791285Y815037D01*
Y817509D01*
X813965Y840190D01*
X815318Y840750D01*
X816568Y842000D01*
X817245Y843634D01*
Y845402D01*
X816568Y847036D01*
X815318Y848286D01*
X813684Y848963D01*
D02*
G37*
G36*
X857250Y731366D02*
Y725170D01*
X863446D01*
X863006Y726810D01*
X862013Y728530D01*
X860610Y729933D01*
X858890Y730926D01*
X857250Y731366D01*
D02*
G37*
G36*
X854710D02*
X853070Y730926D01*
X851350Y729933D01*
X849947Y728530D01*
X848954Y726810D01*
X848514Y725170D01*
X854710D01*
Y731366D01*
D02*
G37*
G36*
X863446Y722630D02*
X857250D01*
Y716434D01*
X858890Y716874D01*
X860610Y717867D01*
X862013Y719270D01*
X863006Y720990D01*
X863446Y722630D01*
D02*
G37*
G36*
X854710D02*
X848514D01*
X848954Y720990D01*
X849947Y719270D01*
X851350Y717867D01*
X853070Y716874D01*
X854710Y716434D01*
Y722630D01*
D02*
G37*
G36*
X115258Y715715D02*
X113489D01*
X111856Y715038D01*
X110605Y713788D01*
X109929Y712154D01*
Y710386D01*
X110605Y708752D01*
X111856Y707502D01*
X113489Y706825D01*
X115258D01*
X116442Y707315D01*
X150163D01*
X151516Y706755D01*
X153284D01*
X154918Y707432D01*
X156168Y708682D01*
X156845Y710316D01*
Y712084D01*
X156168Y713718D01*
X154918Y714968D01*
X153284Y715645D01*
X151516D01*
X150163Y715085D01*
X116779D01*
X115258Y715715D01*
D02*
G37*
G36*
X862250Y704770D02*
X849710D01*
Y692230D01*
X862250D01*
Y704770D01*
D02*
G37*
G36*
X737484Y690245D02*
X735716D01*
X734082Y689568D01*
X732832Y688318D01*
X732271Y686965D01*
X716062Y670756D01*
X685494D01*
X684827Y671032D01*
X683059D01*
X681425Y670355D01*
X680175Y669105D01*
X679498Y667471D01*
Y665703D01*
X680175Y664069D01*
X681425Y662819D01*
X681697Y659956D01*
X679443Y657702D01*
X412870D01*
X411038Y659919D01*
Y661687D01*
X410362Y663321D01*
X410285Y663398D01*
Y683563D01*
X410845Y684916D01*
Y686684D01*
X410168Y688318D01*
X408918Y689568D01*
X407284Y690245D01*
X405516D01*
X403882Y689568D01*
X402632Y688318D01*
X401955Y686684D01*
Y684916D01*
X402515Y683563D01*
Y664088D01*
X399992Y663043D01*
X399963Y663048D01*
X399597Y663415D01*
X398336Y664257D01*
X396850Y664553D01*
X310379D01*
X292939Y681993D01*
X292378Y683346D01*
X291128Y684596D01*
X289494Y685273D01*
X287726D01*
X286373Y684713D01*
X282376D01*
X280889Y684417D01*
X279629Y683575D01*
X276653Y680599D01*
X275811Y679339D01*
X275515Y677852D01*
Y664985D01*
X261355Y650825D01*
X139093D01*
X137606Y650529D01*
X136346Y649687D01*
X75296Y588637D01*
X73682Y587968D01*
X72432Y586718D01*
X71755Y585084D01*
Y583316D01*
X72432Y581682D01*
X73682Y580432D01*
X75316Y579755D01*
X77084D01*
X78718Y580432D01*
X79968Y581682D01*
X80420Y582774D01*
X140702Y643055D01*
X262964D01*
X264451Y643351D01*
X265711Y644193D01*
X282147Y660629D01*
X282303Y660862D01*
X284843Y660092D01*
Y659938D01*
X285520Y658304D01*
X285646Y658178D01*
Y657407D01*
X285942Y655921D01*
X286784Y654660D01*
X296724Y644721D01*
X297984Y643879D01*
X299470Y643583D01*
X400169D01*
X400392Y643360D01*
X400710Y642593D01*
X401878Y641425D01*
X401858Y640987D01*
X401258Y638885D01*
X152606D01*
X152087Y638781D01*
X143321D01*
X141834Y638486D01*
X140574Y637644D01*
X78629Y575699D01*
X75708D01*
X74355Y576259D01*
X72587D01*
X70953Y575583D01*
X69703Y574332D01*
X69026Y572698D01*
Y570930D01*
X69703Y569296D01*
X70953Y568046D01*
X72587Y567369D01*
X74355D01*
X75708Y567930D01*
X78511D01*
X79563Y565390D01*
X77320Y563147D01*
X77084Y563245D01*
X75316D01*
X73682Y562568D01*
X72432Y561318D01*
X71755Y559684D01*
Y557916D01*
X72432Y556282D01*
X73682Y555032D01*
X75316Y554355D01*
X75681D01*
X76734Y551815D01*
X73453Y548535D01*
X72611Y547274D01*
X72315Y545788D01*
Y535637D01*
X71755Y534284D01*
Y532516D01*
X72432Y530882D01*
X73682Y529632D01*
X75316Y528955D01*
X77084D01*
X78718Y529632D01*
X79968Y530882D01*
X80645Y532516D01*
Y534284D01*
X80085Y535637D01*
Y538005D01*
X80664Y538330D01*
X82625Y538784D01*
X83460Y537948D01*
X85094Y537271D01*
X86862D01*
X88496Y537948D01*
X89746Y539199D01*
X90423Y540832D01*
Y541221D01*
X91417Y542215D01*
X202065D01*
X203199Y540252D01*
X203626Y539825D01*
X202573Y537285D01*
X164567D01*
X163152Y537871D01*
X161384D01*
X159750Y537194D01*
X158500Y535944D01*
X157823Y534310D01*
Y532542D01*
X158500Y530908D01*
X159750Y529658D01*
X161384Y528981D01*
X163152D01*
X164443Y529515D01*
X202573D01*
X203626Y526975D01*
X203199Y526549D01*
X202065Y524585D01*
X126374D01*
X120539Y530419D01*
X119279Y531261D01*
X117793Y531557D01*
X101702D01*
X100215Y531261D01*
X98955Y530419D01*
X68126Y499590D01*
X66519Y498924D01*
X65269Y497674D01*
X64592Y496040D01*
Y494272D01*
X65269Y492638D01*
X66519Y491388D01*
X68153Y490711D01*
X69921D01*
X71555Y491388D01*
X72806Y492638D01*
X73261Y493737D01*
X103311Y523787D01*
X116184D01*
X122018Y517953D01*
X122442Y517669D01*
X121672Y515130D01*
X121595D01*
X119962Y514453D01*
X118711Y513202D01*
X118035Y511569D01*
Y509800D01*
X118711Y508167D01*
X119962Y506916D01*
X120728Y506599D01*
X121542Y505785D01*
Y446518D01*
X120919Y445961D01*
X119002Y445089D01*
X118012Y445499D01*
X117927D01*
X90876Y472550D01*
X89615Y473392D01*
X88129Y473688D01*
X84206D01*
X83373Y474033D01*
X81604D01*
X80365Y473519D01*
X78814Y474135D01*
X77825Y474802D01*
Y480579D01*
X78385Y481931D01*
Y483700D01*
X77708Y485334D01*
X76458Y486584D01*
X74824Y487261D01*
X73056D01*
X71422Y486584D01*
X70172Y485334D01*
X69495Y483700D01*
Y481931D01*
X70055Y480579D01*
Y462696D01*
X68705Y461794D01*
X66936D01*
X65303Y461118D01*
X64052Y459867D01*
X63376Y458233D01*
Y456465D01*
X63936Y455112D01*
Y425928D01*
X64232Y424441D01*
X65074Y423181D01*
X110927Y377328D01*
X112187Y376486D01*
X113673Y376190D01*
X321835D01*
X323322Y376486D01*
X324582Y377328D01*
X387870Y440615D01*
X440825D01*
X441959Y438652D01*
X443732Y436878D01*
X445904Y435624D01*
X448326Y434975D01*
X450835D01*
X453257Y435624D01*
X455429Y436878D01*
X457202Y438652D01*
X458456Y440824D01*
X459105Y443246D01*
Y445754D01*
X458456Y448176D01*
X457202Y450349D01*
X455429Y452122D01*
X453257Y453376D01*
X450835Y454025D01*
X448326D01*
X445904Y453376D01*
X443732Y452122D01*
X441959Y450349D01*
X440825Y448385D01*
X389977D01*
X389005Y450731D01*
X404289Y466015D01*
X440825D01*
X441959Y464052D01*
X443732Y462278D01*
X445904Y461024D01*
X448326Y460375D01*
X450835D01*
X453257Y461024D01*
X455429Y462278D01*
X457202Y464052D01*
X458456Y466223D01*
X459105Y468646D01*
Y471154D01*
X458456Y473577D01*
X457202Y475748D01*
X455429Y477522D01*
X453257Y478776D01*
X450835Y479425D01*
X448326D01*
X445904Y478776D01*
X443732Y477522D01*
X441959Y475748D01*
X440825Y473785D01*
X402680D01*
X401346Y473519D01*
X401190Y473629D01*
X400255Y476020D01*
X415650Y491415D01*
X440825D01*
X441959Y489451D01*
X443732Y487678D01*
X445904Y486424D01*
X448326Y485775D01*
X450835D01*
X453257Y486424D01*
X455429Y487678D01*
X457202Y489451D01*
X458456Y491623D01*
X459105Y494046D01*
Y496554D01*
X458456Y498977D01*
X457202Y501148D01*
X457122Y501229D01*
X458174Y503769D01*
X474609D01*
X478715Y499662D01*
Y436636D01*
X465064Y422985D01*
X458336D01*
X457202Y424949D01*
X455429Y426722D01*
X453257Y427976D01*
X450835Y428625D01*
X448326D01*
X445904Y427976D01*
X443732Y426722D01*
X441959Y424949D01*
X440705Y422776D01*
X440056Y420354D01*
Y417846D01*
X440705Y415424D01*
X441959Y413251D01*
X443732Y411478D01*
X445904Y410224D01*
X448326Y409575D01*
X450835D01*
X453257Y410224D01*
X455429Y411478D01*
X457202Y413251D01*
X458336Y415215D01*
X466673D01*
X468159Y415511D01*
X469420Y416353D01*
X485347Y432280D01*
X486189Y433540D01*
X486485Y435027D01*
Y501271D01*
X486189Y502758D01*
X485347Y504018D01*
X478965Y510401D01*
X477704Y511243D01*
X476218Y511538D01*
X457481D01*
X456429Y514078D01*
X457202Y514851D01*
X458336Y516815D01*
X464623D01*
X466110Y517111D01*
X467370Y517953D01*
X485347Y535930D01*
X486189Y537190D01*
X486485Y538677D01*
Y611583D01*
X486189Y613069D01*
X485347Y614329D01*
X462033Y637644D01*
X460772Y638486D01*
X459286Y638781D01*
X407500D01*
X406989Y641131D01*
X406996Y641343D01*
X408246Y642593D01*
X408923Y644227D01*
Y645995D01*
X408344Y647393D01*
X408763Y648553D01*
X409534Y649933D01*
X681052D01*
X682539Y650229D01*
X683799Y651071D01*
X689215Y656487D01*
X823080D01*
X859715Y619852D01*
Y611837D01*
X859155Y610484D01*
Y610294D01*
X856615Y609242D01*
X820446Y645411D01*
X819186Y646253D01*
X817699Y646549D01*
X543403D01*
X541917Y646253D01*
X540657Y645411D01*
X517165Y621920D01*
X516323Y620660D01*
X516027Y619173D01*
Y578950D01*
X516323Y577463D01*
X517165Y576203D01*
X524615Y568753D01*
X525875Y567911D01*
X527361Y567615D01*
X532264D01*
X533398Y565652D01*
X535172Y563878D01*
X537343Y562624D01*
X539766Y561975D01*
X542274D01*
X544697Y562624D01*
X546869Y563878D01*
X548642Y565652D01*
X549896Y567823D01*
X550545Y570246D01*
Y572754D01*
X549896Y575177D01*
X548642Y577349D01*
X546869Y579122D01*
X544697Y580376D01*
X542274Y581025D01*
X539766D01*
X537343Y580376D01*
X535172Y579122D01*
X533398Y577349D01*
X532264Y575385D01*
X528970D01*
X523797Y580559D01*
Y617564D01*
X545012Y638780D01*
X604294D01*
X605346Y636240D01*
X569891Y600785D01*
X550545D01*
Y606425D01*
X531495D01*
Y587375D01*
X550545D01*
Y593015D01*
X571500D01*
X572987Y593311D01*
X574247Y594153D01*
X611209Y631115D01*
X747975D01*
X748745Y628575D01*
X748261Y628252D01*
X733853Y613844D01*
X733011Y612584D01*
X732715Y611097D01*
Y533400D01*
X733011Y531913D01*
X733853Y530653D01*
X746553Y517953D01*
X747813Y517111D01*
X749300Y516815D01*
X771024D01*
X772158Y514851D01*
X772234Y514776D01*
X771182Y512236D01*
X745178D01*
X708567Y548847D01*
X707306Y549689D01*
X705820Y549985D01*
X549776D01*
X548642Y551949D01*
X546869Y553722D01*
X544697Y554976D01*
X542274Y555625D01*
X539766D01*
X537343Y554976D01*
X535172Y553722D01*
X533398Y551949D01*
X532144Y549776D01*
X531495Y547354D01*
Y544846D01*
X532144Y542424D01*
X533398Y540252D01*
X535172Y538478D01*
X537343Y537224D01*
X539766Y536575D01*
X542274D01*
X544697Y537224D01*
X546869Y538478D01*
X548642Y540252D01*
X549776Y542215D01*
X704211D01*
X740822Y505604D01*
X742082Y504762D01*
X743569Y504466D01*
X771884D01*
X772936Y501926D01*
X772158Y501148D01*
X770904Y498977D01*
X770255Y496554D01*
Y494046D01*
X770904Y491623D01*
X772158Y489451D01*
X772585Y489025D01*
X771533Y486485D01*
X738209D01*
X701247Y523447D01*
X699987Y524289D01*
X698500Y524585D01*
X549776D01*
X548642Y526549D01*
X546869Y528322D01*
X544697Y529576D01*
X542274Y530225D01*
X539766D01*
X537343Y529576D01*
X535172Y528322D01*
X533398Y526549D01*
X532144Y524376D01*
X531495Y521954D01*
Y519446D01*
X532144Y517024D01*
X533398Y514851D01*
X535172Y513078D01*
X537343Y511824D01*
X539766Y511175D01*
X542274D01*
X544697Y511824D01*
X546869Y513078D01*
X548642Y514851D01*
X549776Y516815D01*
X696891D01*
X733853Y479853D01*
X735113Y479011D01*
X736600Y478715D01*
X771533D01*
X772585Y476175D01*
X772158Y475748D01*
X770904Y473577D01*
X770255Y471154D01*
Y468646D01*
X770904Y466223D01*
X772158Y464052D01*
X772585Y463625D01*
X771533Y461085D01*
X555329D01*
X549958Y466456D01*
X550545Y468646D01*
Y471154D01*
X549896Y473577D01*
X548642Y475748D01*
X546869Y477522D01*
X544697Y478776D01*
X542274Y479425D01*
X539766D01*
X537343Y478776D01*
X535172Y477522D01*
X533398Y475748D01*
X532144Y473577D01*
X531495Y471154D01*
Y468646D01*
X532144Y466223D01*
X533398Y464052D01*
X535172Y462278D01*
X537343Y461024D01*
X539766Y460375D01*
X542274D01*
X544464Y460962D01*
X550973Y454453D01*
X552233Y453611D01*
X553720Y453315D01*
X771533D01*
X772585Y450775D01*
X772158Y450349D01*
X770904Y448176D01*
X770255Y445754D01*
Y443246D01*
X770904Y440824D01*
X772158Y438652D01*
X773932Y436878D01*
X776104Y435624D01*
X778526Y434975D01*
X781034D01*
X783456Y435624D01*
X785629Y436878D01*
X787402Y438652D01*
X788536Y440615D01*
X841472D01*
X842959Y440911D01*
X844219Y441753D01*
X845692Y443226D01*
X845765Y443219D01*
X846712Y440574D01*
X829241Y423103D01*
X811767D01*
X811171Y422985D01*
X788536D01*
X787402Y424949D01*
X785629Y426722D01*
X783456Y427976D01*
X781034Y428625D01*
X778526D01*
X776104Y427976D01*
X773932Y426722D01*
X772158Y424949D01*
X770904Y422776D01*
X770255Y420354D01*
Y417846D01*
X770904Y415424D01*
X772158Y413251D01*
X772585Y412825D01*
X771533Y410285D01*
X636609D01*
X599647Y447247D01*
X598387Y448089D01*
X596900Y448385D01*
X549776D01*
X548642Y450349D01*
X546869Y452122D01*
X544697Y453376D01*
X542274Y454025D01*
X539766D01*
X537343Y453376D01*
X535172Y452122D01*
X533398Y450349D01*
X532144Y448176D01*
X531495Y445754D01*
Y443246D01*
X532144Y440824D01*
X533398Y438652D01*
X535172Y436878D01*
X537343Y435624D01*
X539766Y434975D01*
X542274D01*
X544697Y435624D01*
X546869Y436878D01*
X548642Y438652D01*
X549776Y440615D01*
X595291D01*
X623275Y412631D01*
X622303Y410285D01*
X585809D01*
X574247Y421847D01*
X572987Y422689D01*
X571500Y422985D01*
X549776D01*
X548642Y424949D01*
X546869Y426722D01*
X544697Y427976D01*
X542274Y428625D01*
X539766D01*
X537343Y427976D01*
X535172Y426722D01*
X533398Y424949D01*
X532144Y422776D01*
X531495Y420354D01*
Y417846D01*
X532144Y415424D01*
X533398Y413251D01*
X535172Y411478D01*
X537343Y410224D01*
X539766Y409575D01*
X542274D01*
X544697Y410224D01*
X546869Y411478D01*
X548642Y413251D01*
X549776Y415215D01*
X569891D01*
X581453Y403653D01*
X582713Y402811D01*
X584200Y402515D01*
X624411D01*
X629623Y397303D01*
X630883Y396461D01*
X632370Y396165D01*
X834656D01*
X836143Y396461D01*
X837403Y397303D01*
X848965Y408865D01*
X857253D01*
X858225Y406519D01*
X836591Y384885D01*
X523578D01*
X511885Y396578D01*
Y480991D01*
X522309Y491415D01*
X532264D01*
X533398Y489451D01*
X535172Y487678D01*
X537343Y486424D01*
X539766Y485775D01*
X542274D01*
X544697Y486424D01*
X546869Y487678D01*
X548642Y489451D01*
X549896Y491623D01*
X550545Y494046D01*
Y496554D01*
X549896Y498977D01*
X548642Y501148D01*
X546869Y502922D01*
X544697Y504176D01*
X542274Y504825D01*
X539766D01*
X537343Y504176D01*
X535172Y502922D01*
X533398Y501148D01*
X532264Y499185D01*
X520700D01*
X519213Y498889D01*
X517953Y498047D01*
X505253Y485347D01*
X504411Y484087D01*
X504115Y482600D01*
Y394969D01*
X504411Y393482D01*
X505253Y392222D01*
X519222Y378253D01*
X520482Y377411D01*
X521969Y377115D01*
X838200D01*
X839687Y377411D01*
X840947Y378253D01*
X865209Y402515D01*
X939800D01*
X941287Y402811D01*
X942547Y403653D01*
X981875Y442982D01*
X982718Y444242D01*
X983013Y445728D01*
Y525397D01*
X982801Y526466D01*
Y527054D01*
X982124Y528688D01*
X980873Y529938D01*
X979240Y530615D01*
X977471D01*
X975838Y529938D01*
X974587Y528688D01*
X973911Y527054D01*
Y525285D01*
X974587Y523652D01*
X975244Y522995D01*
Y447338D01*
X938191Y410285D01*
X933351D01*
X932379Y412631D01*
X950286Y430538D01*
X951128Y431799D01*
X951424Y433285D01*
Y474861D01*
X951128Y476347D01*
X950286Y477608D01*
X943685Y484209D01*
Y497059D01*
X944814Y497527D01*
X946065Y498777D01*
X946741Y500411D01*
Y502179D01*
X946065Y503813D01*
X944814Y505063D01*
X943181Y505740D01*
X941412D01*
X939779Y505063D01*
X938528Y503813D01*
X938289Y503236D01*
X937272Y502849D01*
X934732Y504602D01*
Y536921D01*
X941774Y543964D01*
X943127Y544524D01*
X944377Y545774D01*
X945054Y547408D01*
Y549176D01*
X944377Y550810D01*
X943127Y552060D01*
X941493Y552737D01*
X939725D01*
X938091Y552060D01*
X936841Y550810D01*
X936280Y549457D01*
X928100Y541277D01*
X927258Y540017D01*
X926963Y538531D01*
Y511864D01*
X926375Y511319D01*
X924423Y510416D01*
X923466Y510812D01*
X921697D01*
X920064Y510135D01*
X918813Y508885D01*
X918137Y507251D01*
Y505483D01*
X918697Y504130D01*
Y497841D01*
X918498Y497599D01*
X916157Y496353D01*
X915783Y496508D01*
X910398Y501893D01*
Y539028D01*
X910102Y540515D01*
X909260Y541775D01*
X903884Y547151D01*
X904936Y549691D01*
X905627D01*
X907261Y550368D01*
X908511Y551618D01*
X909072Y552971D01*
X917410Y561310D01*
X935680D01*
X937033Y560749D01*
X938801D01*
X940435Y561426D01*
X941685Y562676D01*
X942362Y564310D01*
Y566078D01*
X941685Y567712D01*
X940435Y568963D01*
X938801Y569639D01*
X937033D01*
X935680Y569079D01*
X915801D01*
X914315Y568783D01*
X913054Y567941D01*
X903578Y558465D01*
X902225Y557904D01*
X901506Y557185D01*
X899044Y557912D01*
X898966Y557964D01*
Y565282D01*
X898670Y566769D01*
X897828Y568029D01*
X863242Y602615D01*
X864294Y605155D01*
X864484D01*
X866118Y605832D01*
X867368Y607082D01*
X868045Y608716D01*
Y610484D01*
X867485Y611837D01*
Y621461D01*
X867189Y622947D01*
X866347Y624208D01*
X827436Y663118D01*
X826176Y663960D01*
X824689Y664256D01*
X723869D01*
X722897Y666603D01*
X737765Y681471D01*
X739118Y682032D01*
X740368Y683282D01*
X741045Y684916D01*
Y686684D01*
X740368Y688318D01*
X739118Y689568D01*
X737484Y690245D01*
D02*
G37*
G36*
X966084Y410845D02*
X964316D01*
X962682Y410168D01*
X961432Y408918D01*
X960871Y407565D01*
X912791Y359485D01*
X62824D01*
X54685Y367623D01*
Y404163D01*
X55245Y405516D01*
Y407284D01*
X54568Y408918D01*
X53318Y410168D01*
X51684Y410845D01*
X49916D01*
X48282Y410168D01*
X47032Y408918D01*
X46355Y407284D01*
Y405516D01*
X46915Y404163D01*
Y366014D01*
X47211Y364528D01*
X48053Y363268D01*
X58467Y352853D01*
X59728Y352011D01*
X61214Y351715D01*
X520703D01*
X521675Y349369D01*
X480596Y308289D01*
X479753Y307029D01*
X479458Y305543D01*
Y113555D01*
X477111Y112583D01*
X472647Y117047D01*
X471387Y117889D01*
X469900Y118185D01*
X458336D01*
X457202Y120148D01*
X455429Y121922D01*
X453257Y123176D01*
X450835Y123825D01*
X448326D01*
X445904Y123176D01*
X443732Y121922D01*
X441959Y120148D01*
X440705Y117977D01*
X440056Y115554D01*
Y113046D01*
X440705Y110624D01*
X441959Y108451D01*
X442385Y108025D01*
X441333Y105485D01*
X436385D01*
X435685Y106185D01*
Y120310D01*
X446136Y130762D01*
X448326Y130175D01*
X450835D01*
X453257Y130824D01*
X455429Y132078D01*
X457202Y133851D01*
X458456Y136024D01*
X459105Y138446D01*
Y140954D01*
X458456Y143377D01*
X457202Y145548D01*
X455429Y147322D01*
X453257Y148576D01*
X450835Y149225D01*
X448326D01*
X445904Y148576D01*
X443732Y147322D01*
X441959Y145548D01*
X440705Y143377D01*
X440056Y140954D01*
Y138446D01*
X440642Y136256D01*
X429053Y124666D01*
X428211Y123406D01*
X427915Y121919D01*
Y104576D01*
X428211Y103089D01*
X429053Y101829D01*
X432029Y98853D01*
X433289Y98011D01*
X434776Y97715D01*
X441333D01*
X442385Y95175D01*
X441959Y94748D01*
X440825Y92785D01*
X430580D01*
X429093Y92489D01*
X427833Y91647D01*
X408900Y72714D01*
X181301D01*
X177003Y77012D01*
X176443Y78365D01*
X175192Y79615D01*
X173559Y80292D01*
X171790D01*
X170157Y79615D01*
X168906Y78365D01*
X168230Y76731D01*
Y74963D01*
X168906Y73329D01*
X170157Y72079D01*
X171509Y71518D01*
X176945Y66083D01*
X178206Y65241D01*
X179692Y64945D01*
X410509D01*
X411996Y65241D01*
X413256Y66083D01*
X432189Y85015D01*
X440825D01*
X441959Y83052D01*
X443732Y81278D01*
X445904Y80024D01*
X448326Y79375D01*
X450835D01*
X453257Y80024D01*
X455429Y81278D01*
X457202Y83052D01*
X458456Y85224D01*
X459105Y87646D01*
Y90154D01*
X458456Y92577D01*
X457202Y94748D01*
X456776Y95175D01*
X457828Y97715D01*
X463565D01*
X464266Y97015D01*
Y68075D01*
X455354Y59164D01*
X143944D01*
X106413Y96694D01*
Y134021D01*
X106118Y135507D01*
X105276Y136768D01*
X103910Y138134D01*
X104962Y140674D01*
X105401D01*
X106754Y141234D01*
X163374D01*
X167655Y136953D01*
X168915Y136111D01*
X170402Y135815D01*
X202065D01*
X203199Y133851D01*
X204972Y132078D01*
X207144Y130824D01*
X209566Y130175D01*
X212075D01*
X214497Y130824D01*
X216669Y132078D01*
X218442Y133851D01*
X219696Y136024D01*
X220345Y138446D01*
Y140954D01*
X219696Y143377D01*
X218442Y145548D01*
X216669Y147322D01*
X214497Y148576D01*
X212075Y149225D01*
X209566D01*
X207144Y148576D01*
X204972Y147322D01*
X203199Y145548D01*
X202065Y143585D01*
X172011D01*
X167730Y147865D01*
X166469Y148708D01*
X164983Y149003D01*
X106754D01*
X105401Y149564D01*
X103632D01*
X101999Y148887D01*
X100748Y147636D01*
X100072Y146003D01*
Y145564D01*
X97532Y144512D01*
X93447Y148596D01*
X92187Y149438D01*
X90700Y149734D01*
X77283D01*
X75701Y150389D01*
X73933D01*
X72299Y149713D01*
X71049Y148462D01*
X70372Y146828D01*
Y145060D01*
X71049Y143427D01*
X72299Y142176D01*
X73933Y141499D01*
X75701D01*
X76825Y141965D01*
X89091D01*
X90993Y140063D01*
X90919Y139478D01*
X89326Y137205D01*
X77553D01*
X76200Y137765D01*
X74432D01*
X72798Y137088D01*
X71547Y135838D01*
X70871Y134205D01*
Y132436D01*
X71547Y130802D01*
X72798Y129552D01*
X74432Y128875D01*
X76200D01*
X77553Y129436D01*
X87717D01*
X88242Y128911D01*
X88802Y127558D01*
X90053Y126307D01*
X91687Y125631D01*
X93455D01*
X95089Y126307D01*
X96104Y127323D01*
X97199Y127180D01*
X98644Y126544D01*
Y95085D01*
X98940Y93598D01*
X99782Y92338D01*
X139588Y52532D01*
X139653Y52489D01*
X138883Y49949D01*
X133345D01*
X78273Y105021D01*
Y117905D01*
X78942Y119521D01*
Y121289D01*
X78265Y122923D01*
X77015Y124173D01*
X75381Y124850D01*
X73613D01*
X71979Y124173D01*
X70729Y122923D01*
X70052Y121289D01*
Y119521D01*
X70503Y118431D01*
Y103412D01*
X70799Y101925D01*
X71641Y100665D01*
X128989Y43317D01*
X130249Y42475D01*
X131736Y42179D01*
X146213D01*
X146334Y41987D01*
X146991Y39639D01*
X146244Y38892D01*
X145567Y37259D01*
Y35490D01*
X146244Y33856D01*
X147494Y32606D01*
X149128Y31929D01*
X150897D01*
X152530Y32606D01*
X152866Y32942D01*
X473042D01*
X474529Y33238D01*
X475789Y34080D01*
X486089Y44380D01*
X486931Y45640D01*
X487227Y47127D01*
Y303933D01*
X528659Y345365D01*
X918604D01*
X919415Y345029D01*
X921183D01*
X922817Y345706D01*
X924068Y346956D01*
X924744Y348590D01*
Y350359D01*
X924068Y351992D01*
X922817Y353243D01*
X921623Y353737D01*
X920938Y355365D01*
X920753Y356459D01*
X966365Y402071D01*
X967718Y402632D01*
X968968Y403882D01*
X969645Y405516D01*
Y407284D01*
X968968Y408918D01*
X967718Y410168D01*
X966084Y410845D01*
D02*
G37*
G36*
X367837Y334085D02*
X51497D01*
X50010Y333789D01*
X48750Y332947D01*
X24605Y308802D01*
X23763Y307542D01*
X23467Y306055D01*
Y205025D01*
X23763Y203538D01*
X24605Y202278D01*
X30885Y195997D01*
X31446Y194644D01*
X32696Y193394D01*
X34330Y192717D01*
X36098D01*
X37732Y193394D01*
X38982Y194644D01*
X39659Y196278D01*
Y198046D01*
X38982Y199680D01*
X37732Y200930D01*
X36379Y201491D01*
X31236Y206633D01*
Y217078D01*
X32473Y217812D01*
X33776Y218298D01*
X35124Y217739D01*
X36892D01*
X38526Y218416D01*
X39777Y219666D01*
X40453Y221300D01*
Y223068D01*
X39777Y224702D01*
X39337Y225141D01*
Y300300D01*
X56537Y317499D01*
X147295D01*
X147928Y316490D01*
X148258Y314959D01*
X91183Y257885D01*
X81383D01*
X79896Y257589D01*
X78636Y256747D01*
X70882Y248993D01*
X70040Y247733D01*
X69744Y246246D01*
Y237317D01*
X69184Y235964D01*
Y234196D01*
X69861Y232562D01*
X71111Y231312D01*
X72745Y230635D01*
X74513D01*
X76147Y231312D01*
X77397Y232562D01*
X78074Y234196D01*
Y235964D01*
X77514Y237317D01*
Y244637D01*
X82992Y250115D01*
X92792D01*
X94279Y250411D01*
X95539Y251253D01*
X153001Y308715D01*
X186454D01*
X187094Y307684D01*
X187414Y306175D01*
X174972Y293734D01*
X174130Y292473D01*
X173834Y290987D01*
Y245178D01*
X167906Y239250D01*
X166553Y238690D01*
X165303Y237439D01*
X164626Y235805D01*
Y234037D01*
X165303Y232403D01*
X166553Y231153D01*
X168187Y230476D01*
X169955D01*
X171589Y231153D01*
X172840Y232403D01*
X173400Y233756D01*
X180466Y240822D01*
X181308Y242083D01*
X181604Y243569D01*
Y289378D01*
X192150Y299924D01*
X344291D01*
X430624Y213591D01*
X431884Y212749D01*
X433371Y212454D01*
X440643D01*
X440705Y212223D01*
X441959Y210051D01*
X443732Y208278D01*
X445904Y207024D01*
X448326Y206375D01*
X450835D01*
X453257Y207024D01*
X455429Y208278D01*
X457202Y210051D01*
X458456Y212223D01*
X459043Y214414D01*
X459829Y214862D01*
X461646Y215404D01*
X466255Y210795D01*
Y199007D01*
X461632Y194385D01*
X458336D01*
X457202Y196348D01*
X455429Y198122D01*
X453257Y199376D01*
X450835Y200025D01*
X448326D01*
X445904Y199376D01*
X443732Y198122D01*
X441959Y196348D01*
X440705Y194177D01*
X440056Y191754D01*
Y189246D01*
X440705Y186824D01*
X441959Y184652D01*
X443732Y182878D01*
X445904Y181624D01*
X448326Y180975D01*
X450835D01*
X453257Y181624D01*
X455429Y182878D01*
X457202Y184652D01*
X458336Y186615D01*
X463241D01*
X464728Y186911D01*
X465988Y187753D01*
X472886Y194651D01*
X473728Y195912D01*
X474024Y197398D01*
Y212404D01*
X473728Y213890D01*
X472886Y215151D01*
X456610Y231427D01*
X456116Y232368D01*
X456494Y234743D01*
X457202Y235452D01*
X458456Y237624D01*
X459105Y240046D01*
Y242554D01*
X458456Y244977D01*
X457202Y247148D01*
X455429Y248922D01*
X453257Y250176D01*
X450835Y250825D01*
X448326D01*
X445904Y250176D01*
X443732Y248922D01*
X441959Y247148D01*
X440825Y245185D01*
X437008D01*
X358417Y323775D01*
X358699Y325200D01*
X359364Y326315D01*
X366228D01*
X428590Y263953D01*
X429850Y263111D01*
X431337Y262815D01*
X440825D01*
X441959Y260851D01*
X443732Y259078D01*
X445904Y257824D01*
X448326Y257175D01*
X450835D01*
X453257Y257824D01*
X455429Y259078D01*
X457202Y260851D01*
X458456Y263023D01*
X459105Y265446D01*
Y267954D01*
X458456Y270376D01*
X457202Y272549D01*
X455429Y274322D01*
X453257Y275576D01*
X450835Y276225D01*
X448326D01*
X445904Y275576D01*
X443732Y274322D01*
X441959Y272549D01*
X440825Y270585D01*
X432946D01*
X370584Y332947D01*
X369324Y333789D01*
X367837Y334085D01*
D02*
G37*
G36*
X831850Y315035D02*
X606970D01*
X605483Y314739D01*
X604223Y313897D01*
X599011Y308685D01*
X533400D01*
X531913Y308389D01*
X530653Y307547D01*
X518970Y295863D01*
X518128Y294603D01*
X517832Y293116D01*
Y244349D01*
X518128Y242862D01*
X518970Y241602D01*
X521945Y238626D01*
X523206Y237784D01*
X524692Y237489D01*
X532222D01*
X533398Y235452D01*
X535172Y233678D01*
X537343Y232424D01*
X539766Y231775D01*
X542274D01*
X544697Y232424D01*
X546869Y233678D01*
X548642Y235452D01*
X549896Y237624D01*
X550545Y240046D01*
Y242554D01*
X549896Y244977D01*
X548642Y247148D01*
X546869Y248922D01*
X544697Y250176D01*
X542274Y250825D01*
X539766D01*
X537343Y250176D01*
X535172Y248922D01*
X533398Y247148D01*
X532307Y245258D01*
X526301D01*
X525601Y245958D01*
Y291507D01*
X535009Y300915D01*
X596903D01*
X597875Y298569D01*
X569891Y270585D01*
X550545D01*
Y276225D01*
X531495D01*
Y257175D01*
X550545D01*
Y262815D01*
X571500D01*
X572987Y263111D01*
X574247Y263953D01*
X611209Y300915D01*
X647703D01*
X648675Y298569D01*
X569891Y219785D01*
X549776D01*
X548642Y221749D01*
X546869Y223522D01*
X544697Y224776D01*
X542274Y225425D01*
X539766D01*
X537343Y224776D01*
X535172Y223522D01*
X533398Y221749D01*
X532144Y219576D01*
X531495Y217154D01*
Y214646D01*
X532144Y212223D01*
X533398Y210051D01*
X535172Y208278D01*
X537343Y207024D01*
X539766Y206375D01*
X542274D01*
X544697Y207024D01*
X546869Y208278D01*
X548642Y210051D01*
X549776Y212015D01*
X571500D01*
X572987Y212311D01*
X574247Y213153D01*
X655659Y294565D01*
X817541D01*
X887918Y224189D01*
Y211844D01*
X887357Y210491D01*
Y208723D01*
X888034Y207089D01*
X886120Y205652D01*
X886016Y205715D01*
X884819Y206912D01*
X883559Y207754D01*
X882072Y208050D01*
X793124D01*
X788718Y212456D01*
X789305Y214646D01*
Y217154D01*
X788656Y219576D01*
X787402Y221749D01*
X785629Y223522D01*
X783456Y224776D01*
X781034Y225425D01*
X778526D01*
X776104Y224776D01*
X773932Y223522D01*
X772158Y221749D01*
X770904Y219576D01*
X770255Y217154D01*
Y214646D01*
X770904Y212223D01*
X772158Y210051D01*
X773932Y208278D01*
X776104Y207024D01*
X778526Y206375D01*
X781034D01*
X783224Y206962D01*
X788768Y201418D01*
X790028Y200576D01*
X791515Y200280D01*
X817292D01*
X817819Y199512D01*
X818267Y197740D01*
X802211Y181685D01*
X788027D01*
X786975Y184225D01*
X787402Y184652D01*
X788656Y186824D01*
X789305Y189246D01*
Y191754D01*
X788656Y194177D01*
X787402Y196348D01*
X785629Y198122D01*
X783456Y199376D01*
X781034Y200025D01*
X778526D01*
X776104Y199376D01*
X773932Y198122D01*
X772158Y196348D01*
X771024Y194385D01*
X760880D01*
X760179Y195085D01*
Y249415D01*
X760880Y250115D01*
X771533D01*
X772585Y247575D01*
X772158Y247148D01*
X770904Y244977D01*
X770255Y242554D01*
Y240046D01*
X770904Y237624D01*
X772158Y235452D01*
X773932Y233678D01*
X776104Y232424D01*
X778526Y231775D01*
X781034D01*
X783224Y232362D01*
X796044Y219542D01*
X797305Y218700D01*
X798791Y218404D01*
X844485D01*
X844507Y218382D01*
X846141Y217705D01*
X847909D01*
X849543Y218382D01*
X850793Y219632D01*
X851470Y221266D01*
Y223034D01*
X850793Y224668D01*
X849543Y225918D01*
X847909Y226595D01*
X846141D01*
X845123Y226174D01*
X800400D01*
X788718Y237856D01*
X789305Y240046D01*
Y242554D01*
X788656Y244977D01*
X787402Y247148D01*
X786975Y247575D01*
X788027Y250115D01*
X827909D01*
X843599Y234425D01*
Y233855D01*
X844276Y232221D01*
X845527Y230970D01*
X847160Y230294D01*
X848929D01*
X850562Y230970D01*
X851813Y232221D01*
X852489Y233855D01*
Y235623D01*
X851813Y237257D01*
X850562Y238507D01*
X850464Y238548D01*
X832265Y256747D01*
X831005Y257589D01*
X829518Y257885D01*
X788027D01*
X786975Y260425D01*
X787402Y260851D01*
X788656Y263023D01*
X789305Y265446D01*
Y267954D01*
X788656Y270376D01*
X787402Y272549D01*
X785629Y274322D01*
X783456Y275576D01*
X781034Y276225D01*
X778526D01*
X776104Y275576D01*
X773932Y274322D01*
X772158Y272549D01*
X771024Y270585D01*
X749300D01*
X747813Y270289D01*
X746553Y269447D01*
X733853Y256747D01*
X733011Y255487D01*
X732715Y254000D01*
Y190497D01*
X730369Y189525D01*
X726647Y193247D01*
X725387Y194089D01*
X723900Y194385D01*
X549776D01*
X548642Y196348D01*
X546869Y198122D01*
X544697Y199376D01*
X542274Y200025D01*
X539766D01*
X537343Y199376D01*
X535172Y198122D01*
X533398Y196348D01*
X532144Y194177D01*
X531495Y191754D01*
Y189246D01*
X532144Y186824D01*
X533398Y184652D01*
X533825Y184225D01*
X533619Y182992D01*
X532877Y181581D01*
X531913Y181389D01*
X530653Y180547D01*
X514616Y164509D01*
X513773Y163249D01*
X513478Y161763D01*
Y143604D01*
X513773Y142117D01*
X514616Y140857D01*
X517591Y137881D01*
X518852Y137039D01*
X520338Y136743D01*
X531951D01*
X532144Y136024D01*
X533398Y133851D01*
X535172Y132078D01*
X537343Y130824D01*
X539766Y130175D01*
X542274D01*
X544697Y130824D01*
X546869Y132078D01*
X548642Y133851D01*
X549896Y136024D01*
X550545Y138446D01*
Y140954D01*
X549896Y143377D01*
X548642Y145548D01*
X546869Y147322D01*
X544697Y148576D01*
X542274Y149225D01*
X539766D01*
X537343Y148576D01*
X535172Y147322D01*
X533398Y145548D01*
X532800Y144513D01*
X521947D01*
X521247Y145213D01*
Y160153D01*
X529384Y168291D01*
X531662Y166976D01*
X531495Y166354D01*
Y163846D01*
X532144Y161423D01*
X533398Y159251D01*
X535172Y157478D01*
X537343Y156224D01*
X539766Y155575D01*
X542274D01*
X544697Y156224D01*
X546869Y157478D01*
X548642Y159251D01*
X549776Y161215D01*
X554215D01*
X554915Y160515D01*
Y152400D01*
X555211Y150913D01*
X556053Y149653D01*
X585175Y120531D01*
X584203Y118185D01*
X549776D01*
X548642Y120148D01*
X546869Y121922D01*
X544697Y123176D01*
X542274Y123825D01*
X539766D01*
X537343Y123176D01*
X535172Y121922D01*
X533398Y120148D01*
X532144Y117977D01*
X531495Y115554D01*
Y113046D01*
X532144Y110624D01*
X533398Y108451D01*
X535172Y106678D01*
X537343Y105424D01*
X539766Y104775D01*
X542274D01*
X544697Y105424D01*
X546869Y106678D01*
X548642Y108451D01*
X549776Y110415D01*
X586311D01*
X601934Y94792D01*
X600962Y92445D01*
X549931D01*
X549896Y92577D01*
X548642Y94748D01*
X546869Y96522D01*
X544697Y97776D01*
X542274Y98425D01*
X539766D01*
X537343Y97776D01*
X535172Y96522D01*
X533398Y94748D01*
X532144Y92577D01*
X531495Y90154D01*
Y87646D01*
X532144Y85224D01*
X533398Y83052D01*
X535172Y81278D01*
X537343Y80024D01*
X539766Y79375D01*
X542274D01*
X544697Y80024D01*
X546869Y81278D01*
X548642Y83052D01*
X549580Y84676D01*
X603070D01*
X652393Y35353D01*
X653653Y34511D01*
X655139Y34215D01*
X859997D01*
X861483Y34511D01*
X862744Y35353D01*
X945553Y118162D01*
X946395Y119423D01*
X946691Y120909D01*
Y167052D01*
X947251Y168404D01*
Y170173D01*
X946574Y171806D01*
X945324Y173057D01*
X943690Y173733D01*
X941922D01*
X941593Y173597D01*
X939053Y175140D01*
Y211066D01*
X939200Y211213D01*
X939877Y212846D01*
Y214615D01*
X939200Y216248D01*
X937950Y217499D01*
X936316Y218176D01*
X934548D01*
X932914Y217499D01*
X931664Y216248D01*
X930987Y214615D01*
Y212846D01*
X931284Y212130D01*
Y199186D01*
X928744Y197488D01*
X928731Y197494D01*
X926962D01*
X926817Y197433D01*
X924277Y199084D01*
Y222608D01*
X923981Y224094D01*
X923139Y225355D01*
X834597Y313897D01*
X833337Y314739D01*
X831850Y315035D01*
D02*
G37*
G36*
X212075Y225425D02*
X209566D01*
X207144Y224776D01*
X204972Y223522D01*
X203199Y221749D01*
X202065Y219785D01*
X80359D01*
X78872Y219489D01*
X77612Y218647D01*
X72893Y213928D01*
X72497D01*
X70863Y213251D01*
X69613Y212001D01*
X68936Y210367D01*
Y208599D01*
X69613Y206965D01*
X70863Y205714D01*
X72497Y205038D01*
X74265D01*
X75899Y205714D01*
X77149Y206965D01*
X77313Y207360D01*
X81968Y212015D01*
X202065D01*
X203199Y210051D01*
X204972Y208278D01*
X207144Y207024D01*
X209566Y206375D01*
X212075D01*
X214497Y207024D01*
X216669Y208278D01*
X218442Y210051D01*
X219696Y212223D01*
X220345Y214646D01*
Y217154D01*
X219696Y219576D01*
X218442Y221749D01*
X216669Y223522D01*
X214497Y224776D01*
X212075Y225425D01*
D02*
G37*
G36*
X202130Y200336D02*
X115120D01*
X113633Y200040D01*
X112373Y199198D01*
X76293Y163118D01*
X74705D01*
X73072Y162442D01*
X71821Y161191D01*
X71144Y159558D01*
Y157789D01*
X71821Y156156D01*
X73072Y154905D01*
X74705Y154228D01*
X76474D01*
X78107Y154905D01*
X78152Y154950D01*
X78829Y155085D01*
X80089Y155927D01*
X116729Y192567D01*
X198946D01*
X201296Y191754D01*
Y189246D01*
X201945Y186824D01*
X203199Y184652D01*
X203626Y184225D01*
X202573Y181685D01*
X174210D01*
X170626Y185268D01*
X170066Y186621D01*
X168815Y187871D01*
X167182Y188548D01*
X165413D01*
X163780Y187871D01*
X162529Y186621D01*
X161853Y184987D01*
Y183219D01*
X162529Y181585D01*
X163780Y180335D01*
X165133Y179774D01*
X169854Y175053D01*
X171114Y174211D01*
X172601Y173915D01*
X202573D01*
X203626Y171375D01*
X203199Y170949D01*
X202065Y168985D01*
X143049D01*
X127287Y184747D01*
X126726Y186100D01*
X125476Y187350D01*
X123842Y188027D01*
X122074D01*
X120440Y187350D01*
X119190Y186100D01*
X118513Y184466D01*
Y182698D01*
X119190Y181064D01*
X120440Y179814D01*
X121793Y179253D01*
X138693Y162353D01*
X139953Y161511D01*
X141440Y161215D01*
X202065D01*
X203199Y159251D01*
X204972Y157478D01*
X207144Y156224D01*
X209566Y155575D01*
X212075D01*
X214497Y156224D01*
X216669Y157478D01*
X218442Y159251D01*
X219696Y161423D01*
X220345Y163846D01*
Y166354D01*
X219696Y168776D01*
X218442Y170949D01*
X218015Y171375D01*
X219068Y173915D01*
X226991D01*
X238553Y162353D01*
X239813Y161511D01*
X241300Y161215D01*
X440825D01*
X441959Y159251D01*
X443732Y157478D01*
X445904Y156224D01*
X448326Y155575D01*
X450835D01*
X453257Y156224D01*
X455429Y157478D01*
X457202Y159251D01*
X458456Y161423D01*
X459105Y163846D01*
Y166354D01*
X458456Y168776D01*
X457202Y170949D01*
X455429Y172722D01*
X453257Y173976D01*
X450835Y174625D01*
X448326D01*
X445904Y173976D01*
X443732Y172722D01*
X441959Y170949D01*
X440825Y168985D01*
X242909D01*
X231347Y180547D01*
X230087Y181389D01*
X228600Y181685D01*
X219068D01*
X218015Y184225D01*
X218442Y184652D01*
X219696Y186824D01*
X220345Y189246D01*
Y191754D01*
X219696Y194177D01*
X218442Y196348D01*
X216669Y198122D01*
X214497Y199376D01*
X212075Y200025D01*
X209566D01*
X207144Y199376D01*
X205594Y198481D01*
X204877Y199198D01*
X203616Y200040D01*
X202130Y200336D01*
D02*
G37*
G36*
X220345Y276225D02*
X201296D01*
Y257175D01*
X220345D01*
Y262815D01*
X262253D01*
X275515Y249554D01*
Y180037D01*
X274955Y178684D01*
Y176916D01*
X275632Y175282D01*
X276882Y174032D01*
X278516Y173355D01*
X280284D01*
X281918Y174032D01*
X283168Y175282D01*
X283845Y176916D01*
Y178684D01*
X283285Y180037D01*
Y251163D01*
X282989Y252649D01*
X282147Y253909D01*
X266609Y269447D01*
X265349Y270289D01*
X263863Y270585D01*
X220345D01*
Y276225D01*
D02*
G37*
G36*
X212075Y250825D02*
X209566D01*
X207144Y250176D01*
X204972Y248922D01*
X203199Y247148D01*
X201945Y244977D01*
X201296Y242554D01*
Y240046D01*
X201945Y237624D01*
X203199Y235452D01*
X204972Y233678D01*
X207144Y232424D01*
X209566Y231775D01*
X212075D01*
X214265Y232362D01*
X250115Y196511D01*
Y180037D01*
X249555Y178684D01*
Y176916D01*
X250232Y175282D01*
X251482Y174032D01*
X253116Y173355D01*
X254884D01*
X256518Y174032D01*
X257768Y175282D01*
X258445Y176916D01*
Y178684D01*
X257885Y180037D01*
Y198120D01*
X257589Y199607D01*
X256747Y200867D01*
X219759Y237856D01*
X220345Y240046D01*
Y242554D01*
X219696Y244977D01*
X218442Y247148D01*
X216669Y248922D01*
X214497Y250176D01*
X212075Y250825D01*
D02*
G37*
G36*
X268045Y157810D02*
X266276D01*
X264643Y157133D01*
X263392Y155883D01*
X262832Y154530D01*
X226487Y118185D01*
X219576D01*
X218442Y120148D01*
X216669Y121922D01*
X214497Y123176D01*
X212075Y123825D01*
X209566D01*
X207144Y123176D01*
X204972Y121922D01*
X203199Y120148D01*
X201945Y117977D01*
X201296Y115554D01*
Y113046D01*
X201945Y110624D01*
X203199Y108451D01*
X204972Y106678D01*
X207144Y105424D01*
X209566Y104775D01*
X212075D01*
X214497Y105424D01*
X216669Y106678D01*
X218442Y108451D01*
X219576Y110415D01*
X228096D01*
X229583Y110711D01*
X230843Y111553D01*
X268326Y149036D01*
X269678Y149596D01*
X270929Y150847D01*
X271606Y152480D01*
Y154249D01*
X270929Y155883D01*
X269678Y157133D01*
X268045Y157810D01*
D02*
G37*
G36*
X125740Y131054D02*
X123972D01*
X122338Y130377D01*
X121088Y129127D01*
X120411Y127493D01*
Y125725D01*
X121088Y124091D01*
X122338Y122841D01*
X123560Y122334D01*
X127229Y118666D01*
X128489Y117824D01*
X129976Y117528D01*
X152725D01*
X184100Y86153D01*
X185360Y85311D01*
X186846Y85015D01*
X202065D01*
X203199Y83052D01*
X204972Y81278D01*
X207144Y80024D01*
X209566Y79375D01*
X212075D01*
X214497Y80024D01*
X216669Y81278D01*
X218442Y83052D01*
X219696Y85224D01*
X220345Y87646D01*
Y90154D01*
X219696Y92577D01*
X218442Y94748D01*
X216669Y96522D01*
X214497Y97776D01*
X212075Y98425D01*
X209566D01*
X207144Y97776D01*
X204972Y96522D01*
X203199Y94748D01*
X202065Y92785D01*
X188456D01*
X157081Y124159D01*
X155820Y125002D01*
X154334Y125297D01*
X131585D01*
X129239Y127643D01*
X128624Y129127D01*
X127374Y130377D01*
X125740Y131054D01*
D02*
G37*
G36*
X55708Y90871D02*
X53940D01*
X52306Y90195D01*
X51056Y88944D01*
X50379Y87310D01*
Y85542D01*
X51056Y83908D01*
X52306Y82658D01*
X53659Y82098D01*
X61799Y73958D01*
X60216Y71949D01*
X59259Y72535D01*
X54530Y74494D01*
X49553Y75689D01*
X44450Y76091D01*
X39347Y75689D01*
X34370Y74494D01*
X29641Y72535D01*
X25276Y69861D01*
X21384Y66536D01*
X18059Y62644D01*
X15385Y58279D01*
X13426Y53550D01*
X12231Y48573D01*
X11829Y43470D01*
X12231Y38367D01*
X13426Y33390D01*
X15385Y28661D01*
X18059Y24296D01*
X21384Y20404D01*
X25276Y17079D01*
X29641Y14405D01*
X34370Y12446D01*
X39347Y11251D01*
X44450Y10849D01*
X49553Y11251D01*
X54530Y12446D01*
X59259Y14405D01*
X63624Y17079D01*
X67516Y20404D01*
X70841Y24296D01*
X73515Y28661D01*
X75474Y33390D01*
X76669Y38367D01*
X77071Y43470D01*
X76669Y48573D01*
X75474Y53550D01*
X73515Y58279D01*
X72929Y59236D01*
X74938Y60819D01*
X113104Y22653D01*
X114364Y21811D01*
X115851Y21515D01*
X863600D01*
X865087Y21811D01*
X866347Y22653D01*
X915565Y71871D01*
X916918Y72432D01*
X918168Y73682D01*
X918845Y75316D01*
Y77084D01*
X918168Y78718D01*
X916918Y79968D01*
X915284Y80645D01*
X913516D01*
X911882Y79968D01*
X910632Y78718D01*
X910071Y77365D01*
X861991Y29285D01*
X117460D01*
X59153Y87591D01*
X58593Y88944D01*
X57342Y90195D01*
X55708Y90871D01*
D02*
G37*
G36*
X945798Y76091D02*
X940695Y75689D01*
X935718Y74494D01*
X930989Y72535D01*
X926624Y69861D01*
X922732Y66536D01*
X919407Y62644D01*
X916733Y58279D01*
X914774Y53550D01*
X913579Y48573D01*
X913177Y43470D01*
X913579Y38367D01*
X914774Y33390D01*
X916733Y28661D01*
X919407Y24296D01*
X922732Y20404D01*
X926624Y17079D01*
X930989Y14405D01*
X935718Y12446D01*
X940695Y11251D01*
X945798Y10849D01*
X950901Y11251D01*
X955878Y12446D01*
X960607Y14405D01*
X964972Y17079D01*
X968864Y20404D01*
X972189Y24296D01*
X974863Y28661D01*
X976822Y33390D01*
X978017Y38367D01*
X978419Y43470D01*
X978017Y48573D01*
X976822Y53550D01*
X974863Y58279D01*
X972189Y62644D01*
X968864Y66536D01*
X964972Y69861D01*
X960607Y72535D01*
X955878Y74494D01*
X950901Y75689D01*
X945798Y76091D01*
D02*
G37*
%LPD*%
G36*
X287445Y676500D02*
X306023Y657921D01*
X307283Y657079D01*
X308770Y656784D01*
X395241D01*
X398325Y653699D01*
X397353Y651352D01*
X301080D01*
X293415Y659016D01*
Y659172D01*
X293733Y659938D01*
Y661706D01*
X293056Y663340D01*
X291806Y664591D01*
X290172Y665267D01*
X288404D01*
X286770Y664591D01*
X285825Y663645D01*
X284387Y663889D01*
X283285Y664424D01*
Y676243D01*
X283985Y676944D01*
X286373D01*
X287445Y676500D01*
D02*
G37*
G36*
X472044Y607665D02*
Y579138D01*
X468291Y575385D01*
X458336D01*
X457202Y577349D01*
X455429Y579122D01*
X453257Y580376D01*
X450835Y581025D01*
X448326D01*
X445904Y580376D01*
X443732Y579122D01*
X441959Y577349D01*
X440705Y575177D01*
X440056Y572754D01*
Y570246D01*
X440705Y567823D01*
X441959Y565652D01*
X443732Y563878D01*
X445904Y562624D01*
X448326Y561975D01*
X450835D01*
X453257Y562624D01*
X455429Y563878D01*
X457202Y565652D01*
X458336Y567615D01*
X469900D01*
X471387Y567911D01*
X472647Y568753D01*
X476175Y572282D01*
X478715Y571230D01*
Y540286D01*
X463014Y524585D01*
X458336D01*
X457202Y526549D01*
X455429Y528322D01*
X453257Y529576D01*
X450835Y530225D01*
X448326D01*
X445904Y529576D01*
X443732Y528322D01*
X441959Y526549D01*
X440705Y524376D01*
X440056Y521954D01*
Y519446D01*
X440705Y517024D01*
X441959Y514851D01*
X442732Y514078D01*
X441680Y511538D01*
X380654D01*
X379167Y511243D01*
X377907Y510401D01*
X277791Y410285D01*
X219068D01*
X218015Y412825D01*
X218442Y413251D01*
X219696Y415424D01*
X220345Y417846D01*
Y420354D01*
X219759Y422544D01*
X256747Y459533D01*
X257589Y460793D01*
X257885Y462280D01*
Y502053D01*
X257589Y503540D01*
X256747Y504800D01*
X250800Y510747D01*
X249540Y511589D01*
X248053Y511885D01*
X219068D01*
X218015Y514425D01*
X218442Y514851D01*
X219696Y517024D01*
X220345Y519446D01*
Y521954D01*
X219696Y524376D01*
X218442Y526549D01*
X218015Y526975D01*
X219068Y529515D01*
X226363D01*
X227716Y528955D01*
X229484D01*
X231118Y529632D01*
X232368Y530882D01*
X233045Y532516D01*
Y534284D01*
X232368Y535918D01*
X231118Y537168D01*
X229484Y537845D01*
X227716D01*
X226363Y537285D01*
X219068D01*
X218015Y539825D01*
X218442Y540252D01*
X219696Y542424D01*
X220345Y544846D01*
Y547354D01*
X219696Y549776D01*
X218442Y551949D01*
X218015Y552375D01*
X219068Y554915D01*
X226363D01*
X227716Y554355D01*
X229484D01*
X231118Y555032D01*
X232368Y556282D01*
X233045Y557916D01*
Y559684D01*
X232368Y561318D01*
X231118Y562568D01*
X229484Y563245D01*
X227716D01*
X226363Y562685D01*
X219068D01*
X218015Y565225D01*
X218442Y565652D01*
X219585Y567631D01*
X233626D01*
X239938Y561319D01*
Y530112D01*
X240234Y528626D01*
X241076Y527366D01*
X251621Y516821D01*
Y516810D01*
X252297Y515177D01*
X253548Y513927D01*
X255182Y513250D01*
X256950D01*
X258584Y513927D01*
X259834Y515177D01*
X260511Y516810D01*
Y518579D01*
X259834Y520213D01*
X258584Y521463D01*
X257529Y521900D01*
X247707Y531721D01*
Y562928D01*
X247411Y564414D01*
X246569Y565675D01*
X237982Y574262D01*
X236722Y575104D01*
X235235Y575400D01*
X219567D01*
X218442Y577349D01*
X216669Y579122D01*
X214497Y580376D01*
X212075Y581025D01*
X209566D01*
X207144Y580376D01*
X204972Y579122D01*
X203199Y577349D01*
X201945Y575177D01*
X201296Y572754D01*
Y570246D01*
X201945Y567823D01*
X203199Y565652D01*
X203626Y565225D01*
X202573Y562685D01*
X181510D01*
X179020Y562805D01*
X179020Y562805D01*
X179020D01*
X178613Y565047D01*
X179194Y565288D01*
X180247Y565724D01*
X181497Y566974D01*
X182058Y568327D01*
X201031Y587300D01*
X205105D01*
X205481Y587375D01*
X220345D01*
Y605715D01*
X370018D01*
X432381Y543353D01*
X433641Y542511D01*
X435127Y542215D01*
X440825D01*
X441959Y540252D01*
X443732Y538478D01*
X445904Y537224D01*
X448326Y536575D01*
X450835D01*
X453257Y537224D01*
X455429Y538478D01*
X457202Y540252D01*
X458456Y542424D01*
X459105Y544846D01*
Y547354D01*
X458456Y549776D01*
X457202Y551949D01*
X455429Y553722D01*
X453257Y554976D01*
X450835Y555625D01*
X448326D01*
X445904Y554976D01*
X443732Y553722D01*
X441959Y551949D01*
X440825Y549985D01*
X436736D01*
X374374Y612347D01*
X373114Y613189D01*
X371628Y613485D01*
X177800D01*
X176313Y613189D01*
X175053Y612347D01*
X174211Y611087D01*
X173915Y609600D01*
Y585324D01*
X164833Y576241D01*
X164187D01*
X162553Y575564D01*
X161303Y574314D01*
X160626Y572680D01*
Y570912D01*
X161303Y569278D01*
X162553Y568028D01*
X164187Y567351D01*
X165955D01*
X167589Y568028D01*
X168574Y569013D01*
X168628Y569049D01*
X170945Y571366D01*
X172608Y570662D01*
X173284Y570113D01*
Y568608D01*
X173961Y566974D01*
X175211Y565724D01*
X176264Y565288D01*
X176845Y565047D01*
X176439Y562805D01*
X176439D01*
X176439Y562805D01*
X173948Y562685D01*
X167084D01*
X165523Y563331D01*
X163755D01*
X162121Y562654D01*
X160871Y561404D01*
X160194Y559770D01*
Y558002D01*
X160871Y556368D01*
X162121Y555118D01*
X163755Y554441D01*
X165523D01*
X166668Y554915D01*
X202573D01*
X203626Y552375D01*
X203199Y551949D01*
X202065Y549985D01*
X89808D01*
X89402Y549904D01*
X88151Y552245D01*
X137989Y602083D01*
X139135Y602311D01*
X140395Y603153D01*
X153361Y616119D01*
X394498D01*
X416464Y594153D01*
X417724Y593311D01*
X419211Y593015D01*
X440825D01*
X441959Y591051D01*
X443732Y589278D01*
X445904Y588024D01*
X448326Y587375D01*
X450835D01*
X453257Y588024D01*
X455429Y589278D01*
X457202Y591051D01*
X458456Y593223D01*
X459105Y595646D01*
Y598154D01*
X458456Y600577D01*
X457202Y602748D01*
X455429Y604522D01*
X453257Y605776D01*
X450835Y606425D01*
X448326D01*
X445904Y605776D01*
X443732Y604522D01*
X441959Y602748D01*
X440825Y600785D01*
X420820D01*
X399482Y622122D01*
X400348Y624599D01*
X400399Y624662D01*
X455047D01*
X472044Y607665D01*
D02*
G37*
G36*
X842929Y586979D02*
X842930Y586928D01*
X840633Y585952D01*
X840269Y585997D01*
X813919Y612347D01*
X812659Y613189D01*
X811172Y613485D01*
X764976D01*
X763489Y613189D01*
X762229Y612347D01*
X759253Y609371D01*
X758411Y608111D01*
X758115Y606624D01*
Y563880D01*
X758411Y562393D01*
X759253Y561133D01*
X770842Y549544D01*
X770255Y547354D01*
Y544846D01*
X770904Y542424D01*
X772158Y540252D01*
X773932Y538478D01*
X776104Y537224D01*
X778526Y536575D01*
X781034D01*
X783456Y537224D01*
X785629Y538478D01*
X787402Y540252D01*
X788656Y542424D01*
X789305Y544846D01*
Y547354D01*
X788656Y549776D01*
X787402Y551949D01*
X785629Y553722D01*
X783456Y554976D01*
X781034Y555625D01*
X778526D01*
X776336Y555038D01*
X765885Y565489D01*
Y605015D01*
X766585Y605715D01*
X771533D01*
X772585Y603175D01*
X772158Y602748D01*
X770904Y600577D01*
X770255Y598154D01*
Y595646D01*
X770904Y593223D01*
X772158Y591051D01*
X773932Y589278D01*
X776104Y588024D01*
X778526Y587375D01*
X781034D01*
X783224Y587962D01*
X809180Y562006D01*
X810440Y561164D01*
X811927Y560869D01*
X846228D01*
X847928Y559169D01*
X847886Y558979D01*
X846682Y556822D01*
X845635D01*
X844283Y556261D01*
X800512D01*
X788718Y568056D01*
X789305Y570246D01*
Y572754D01*
X788656Y575177D01*
X787402Y577349D01*
X785629Y579122D01*
X783456Y580376D01*
X781034Y581025D01*
X778526D01*
X776104Y580376D01*
X773932Y579122D01*
X772158Y577349D01*
X770904Y575177D01*
X770255Y572754D01*
Y570246D01*
X770904Y567823D01*
X772158Y565652D01*
X773932Y563878D01*
X776104Y562624D01*
X778526Y561975D01*
X781034D01*
X783224Y562562D01*
X796156Y549630D01*
X797417Y548788D01*
X798903Y548492D01*
X844283D01*
X845635Y547932D01*
X847404D01*
X849037Y548609D01*
X850288Y549859D01*
X850964Y551493D01*
Y552015D01*
X853219Y553228D01*
X854448Y552333D01*
X854798Y551962D01*
Y540339D01*
X854204Y539864D01*
X853007Y540216D01*
X851516Y540967D01*
X850988Y542244D01*
X849737Y543494D01*
X848103Y544171D01*
X846335D01*
X844702Y543494D01*
X843451Y542244D01*
X842891Y540891D01*
X814235Y512236D01*
X788378D01*
X787326Y514776D01*
X787402Y514851D01*
X788656Y517024D01*
X789305Y519446D01*
Y521954D01*
X788656Y524376D01*
X787402Y526549D01*
X785629Y528322D01*
X783456Y529576D01*
X781034Y530225D01*
X778526D01*
X776104Y529576D01*
X773932Y528322D01*
X772158Y526549D01*
X771024Y524585D01*
X750909D01*
X740485Y535009D01*
Y609488D01*
X752617Y621620D01*
X808288D01*
X842929Y586979D01*
D02*
G37*
G36*
X201296Y595070D02*
X199422D01*
X197935Y594774D01*
X196675Y593932D01*
X183381Y580638D01*
X181389Y582228D01*
X181685Y583715D01*
Y605715D01*
X201296D01*
Y595070D01*
D02*
G37*
G36*
X844101Y571178D02*
X843048Y568638D01*
X813536D01*
X788718Y593456D01*
X789305Y595646D01*
Y598154D01*
X788656Y600577D01*
X787402Y602748D01*
X786975Y603175D01*
X788027Y605715D01*
X809563D01*
X844101Y571178D01*
D02*
G37*
G36*
X881019Y562655D02*
Y550467D01*
X878479Y549414D01*
X853647Y574247D01*
X852387Y575089D01*
X851723Y576343D01*
X851435Y578801D01*
X852685Y580051D01*
X853362Y581685D01*
Y583453D01*
X852685Y585087D01*
X852559Y585213D01*
Y586728D01*
X852361Y587720D01*
X853839Y588935D01*
X854456Y589218D01*
X881019Y562655D01*
D02*
G37*
G36*
X203199Y514851D02*
X203626Y514425D01*
X202573Y511885D01*
X164616D01*
X163648Y512286D01*
X161880D01*
X160246Y511609D01*
X158996Y510359D01*
X158319Y508725D01*
Y506956D01*
X158996Y505323D01*
X160246Y504072D01*
X161880Y503396D01*
X163648D01*
X165282Y504072D01*
X165325Y504115D01*
X202573D01*
X203626Y501575D01*
X203199Y501148D01*
X201945Y498977D01*
X201296Y496554D01*
Y494046D01*
X201945Y491623D01*
X203199Y489451D01*
X204261Y488390D01*
X203254Y485850D01*
X177996D01*
X166666Y497180D01*
X166599Y497340D01*
X165349Y498591D01*
X163715Y499268D01*
X161947D01*
X160313Y498591D01*
X159063Y497340D01*
X158386Y495707D01*
Y493938D01*
X159063Y492305D01*
X160313Y491054D01*
X161947Y490378D01*
X162481D01*
X173640Y479218D01*
X174900Y478376D01*
X176387Y478080D01*
X201938D01*
X202839Y476413D01*
X202966Y475951D01*
X201471Y473785D01*
X168405D01*
X166918Y473489D01*
X165658Y472647D01*
X149653Y456642D01*
X148811Y455382D01*
X148515Y453895D01*
Y434037D01*
X147955Y432684D01*
Y430916D01*
X148632Y429282D01*
X149882Y428032D01*
X151516Y427355D01*
X153284D01*
X154918Y428032D01*
X156168Y429282D01*
X156845Y430916D01*
Y432684D01*
X156285Y434037D01*
Y452286D01*
X158422Y454424D01*
X160395Y452805D01*
X160047Y452284D01*
X159752Y450798D01*
Y420564D01*
X160047Y419077D01*
X160889Y417817D01*
X174816Y403890D01*
X174686Y402902D01*
X173928Y401350D01*
X157444D01*
X129311Y429482D01*
Y507394D01*
X129015Y508881D01*
X128173Y510141D01*
X126925Y511390D01*
Y511569D01*
X126248Y513202D01*
X125175Y514275D01*
X125258Y515111D01*
X125931Y516815D01*
X202065D01*
X203199Y514851D01*
D02*
G37*
G36*
X842632Y526121D02*
X842336Y524635D01*
Y520641D01*
X841776Y519288D01*
Y517519D01*
X842452Y515886D01*
X843703Y514635D01*
X844212Y514425D01*
X843706Y511885D01*
X838200D01*
X836713Y511589D01*
X835453Y510747D01*
X823891Y499185D01*
X788536D01*
X787402Y501148D01*
X786624Y501926D01*
X787676Y504466D01*
X815844D01*
X817331Y504762D01*
X818591Y505604D01*
X840520Y527533D01*
X842632Y526121D01*
D02*
G37*
G36*
X250115Y500444D02*
Y463889D01*
X214265Y428038D01*
X212075Y428625D01*
X209566D01*
X207144Y427976D01*
X204972Y426722D01*
X203199Y424949D01*
X201945Y422776D01*
X201296Y420354D01*
Y417846D01*
X201945Y415424D01*
X203199Y413251D01*
X203626Y412825D01*
X202573Y410285D01*
X179409D01*
X167521Y422173D01*
Y449188D01*
X172711Y454379D01*
X174064Y454939D01*
X175314Y456190D01*
X175991Y457823D01*
Y459592D01*
X175314Y461225D01*
X174064Y462476D01*
X173063Y462890D01*
X171952Y464912D01*
X171740Y465692D01*
X171924Y466015D01*
X202065D01*
X203199Y464052D01*
X204972Y462278D01*
X207144Y461024D01*
X209566Y460375D01*
X212075D01*
X214497Y461024D01*
X216669Y462278D01*
X218442Y464052D01*
X219696Y466223D01*
X220345Y468646D01*
Y471154D01*
X219696Y473577D01*
X218599Y475478D01*
X218914Y476557D01*
X219765Y478018D01*
X234099D01*
X235452Y477457D01*
X237220D01*
X238854Y478134D01*
X240104Y479384D01*
X240781Y481018D01*
Y482786D01*
X240104Y484420D01*
X238854Y485671D01*
X237220Y486347D01*
X235452D01*
X234099Y485787D01*
X218236D01*
X217318Y488327D01*
X218442Y489451D01*
X219576Y491415D01*
X230055D01*
X231541Y491711D01*
X232802Y492553D01*
X234282Y494033D01*
X235635Y494594D01*
X236885Y495844D01*
X237562Y497478D01*
Y499246D01*
X236885Y500880D01*
X236190Y501575D01*
X236975Y504115D01*
X246444D01*
X250115Y500444D01*
D02*
G37*
G36*
X902628Y535965D02*
Y500284D01*
X902924Y498798D01*
X903766Y497537D01*
X910290Y491014D01*
X910850Y489661D01*
X912101Y488411D01*
X913734Y487734D01*
X915502D01*
X916157Y488005D01*
X918498Y486759D01*
X918697Y486517D01*
Y478302D01*
X918294Y477873D01*
X916157Y476814D01*
X915523Y477076D01*
X899399Y493200D01*
Y534972D01*
X901939Y536390D01*
X902628Y535965D01*
D02*
G37*
G36*
X840707Y478373D02*
X841659Y475955D01*
X839489Y473785D01*
X788536D01*
X787402Y475748D01*
X786975Y476175D01*
X788027Y478715D01*
X840326D01*
X840707Y478373D01*
D02*
G37*
G36*
X87316Y465122D02*
X112975Y439463D01*
X113359Y438536D01*
X114609Y437286D01*
X116243Y436609D01*
X118012D01*
X119002Y437019D01*
X120919Y436147D01*
X121542Y435590D01*
Y427873D01*
X121838Y426387D01*
X122680Y425126D01*
X152840Y394966D01*
X152698Y393936D01*
X151947Y392426D01*
X119472D01*
X78743Y433154D01*
Y459898D01*
X78447Y461385D01*
X77825Y462317D01*
Y464374D01*
X78814Y465040D01*
X80365Y465656D01*
X81604Y465143D01*
X83373D01*
X85006Y465819D01*
X87316Y465122D01*
D02*
G37*
G36*
X880642Y536264D02*
X882247Y534360D01*
X881571Y532726D01*
Y530957D01*
X882247Y529324D01*
X883498Y528073D01*
X885132Y527397D01*
X886900D01*
X888534Y528073D01*
X889090Y528629D01*
X891630Y527648D01*
Y491591D01*
X891925Y490105D01*
X892767Y488844D01*
X910173Y471439D01*
X910691Y470188D01*
X911942Y468937D01*
X913575Y468261D01*
X915344D01*
X917477Y466599D01*
X917747Y465223D01*
X914723Y462199D01*
X911541D01*
X862993Y510747D01*
X861733Y511589D01*
X860246Y511885D01*
X848735D01*
X848230Y514425D01*
X848739Y514635D01*
X849989Y515886D01*
X850666Y517519D01*
Y519288D01*
X850105Y520641D01*
Y523026D01*
X861429Y534350D01*
X862271Y535610D01*
X862567Y537096D01*
Y550747D01*
X865107Y551799D01*
X880642Y536264D01*
D02*
G37*
G36*
X840264Y465866D02*
X841342Y463595D01*
X841344Y463574D01*
X838855Y461085D01*
X788027D01*
X786975Y463625D01*
X787402Y464052D01*
X788536Y466015D01*
X840075D01*
X840264Y465866D01*
D02*
G37*
G36*
X908281Y454472D02*
X909541Y453630D01*
X911027Y453334D01*
X915236D01*
X916722Y453630D01*
X917983Y454472D01*
X924423Y460912D01*
X926963Y459860D01*
Y451710D01*
X926883Y451602D01*
X924423Y450222D01*
X923892Y450442D01*
X922124D01*
X920490Y449765D01*
X919240Y448515D01*
X918679Y447162D01*
X918602Y447084D01*
X854831D01*
X853345Y446788D01*
X852567Y446269D01*
X850936Y447263D01*
X850457Y447812D01*
X850699Y448398D01*
Y450166D01*
X850023Y451800D01*
X848772Y453050D01*
X847138Y453727D01*
X846076D01*
X844886Y455834D01*
X844831Y456073D01*
X847639Y458881D01*
X848992Y459442D01*
X850242Y460692D01*
X850919Y462326D01*
Y464094D01*
X850242Y465728D01*
X848992Y466978D01*
X847769Y467485D01*
X847302Y468579D01*
X848267Y471194D01*
X848970Y471486D01*
X850221Y472736D01*
X850898Y474370D01*
Y476138D01*
X850221Y477772D01*
X848970Y479022D01*
X847337Y479699D01*
X846726D01*
X845673Y482239D01*
X847981Y484547D01*
X849334Y485107D01*
X850585Y486358D01*
X851261Y487992D01*
Y489760D01*
X850585Y491394D01*
X849334Y492644D01*
X847701Y493321D01*
X845932D01*
X844298Y492644D01*
X843048Y491394D01*
X842488Y490041D01*
X838932Y486485D01*
X788027D01*
X786975Y489025D01*
X787402Y489451D01*
X788536Y491415D01*
X825500D01*
X826987Y491711D01*
X828247Y492553D01*
X839809Y504115D01*
X858637D01*
X908281Y454472D01*
D02*
G37*
G36*
X840935Y453055D02*
X842183Y451068D01*
X841926Y450447D01*
X839863Y448385D01*
X788536D01*
X787402Y450349D01*
X786975Y450775D01*
X788027Y453315D01*
X840464D01*
X840584Y453339D01*
X840935Y453055D01*
D02*
G37*
G36*
X943654Y473252D02*
Y434894D01*
X937078Y428318D01*
X934732Y429290D01*
Y478755D01*
X936355Y479523D01*
X937272Y479634D01*
X943654Y473252D01*
D02*
G37*
G36*
X926883Y440391D02*
X926963Y440284D01*
Y427223D01*
X926262Y426522D01*
X848263D01*
X846986Y426268D01*
X846838Y426382D01*
X846247Y429122D01*
X856440Y439315D01*
X920211D01*
X921697Y439610D01*
X922958Y440453D01*
X924173Y441668D01*
X924423Y441771D01*
X926883Y440391D01*
D02*
G37*
G36*
X832275Y415474D02*
X832867Y412734D01*
X830417Y410285D01*
X788027D01*
X786975Y412825D01*
X787402Y413251D01*
X788536Y415215D01*
X811648D01*
X812244Y415334D01*
X830850D01*
X832128Y415588D01*
X832275Y415474D01*
D02*
G37*
G36*
X442039Y501229D02*
X441959Y501148D01*
X440825Y499185D01*
X414041D01*
X412554Y498889D01*
X411294Y498047D01*
X314597Y401350D01*
X283272D01*
X282514Y402902D01*
X282384Y403890D01*
X382263Y503769D01*
X440987D01*
X442039Y501229D01*
D02*
G37*
%LPC*%
G36*
X229484Y461645D02*
X227716D01*
X226082Y460968D01*
X224832Y459718D01*
X224271Y458365D01*
X217349Y451442D01*
X216669Y452122D01*
X214497Y453376D01*
X212075Y454025D01*
X209566D01*
X207144Y453376D01*
X204972Y452122D01*
X203199Y450349D01*
X201945Y448176D01*
X201296Y445754D01*
Y443246D01*
X201945Y440824D01*
X203199Y438652D01*
X204972Y436878D01*
X207144Y435624D01*
X209566Y434975D01*
X212075D01*
X214497Y435624D01*
X216669Y436878D01*
X218442Y438652D01*
X219696Y440824D01*
X220345Y443246D01*
Y443452D01*
X229765Y452871D01*
X231118Y453432D01*
X232368Y454682D01*
X233045Y456316D01*
Y458084D01*
X232368Y459718D01*
X231118Y460968D01*
X229484Y461645D01*
D02*
G37*
%LPD*%
G36*
X351904Y306986D02*
X432401Y226488D01*
X433662Y225646D01*
X435148Y225350D01*
X442014D01*
X443021Y222810D01*
X441959Y221749D01*
X441078Y220223D01*
X434980D01*
X351015Y304188D01*
X351702Y307041D01*
X351904Y306986D01*
D02*
G37*
G36*
X909805Y218722D02*
Y192108D01*
X907264Y191603D01*
X906822Y192670D01*
X905572Y193921D01*
X903938Y194597D01*
X902170D01*
X900817Y194037D01*
X897694D01*
X887911Y203820D01*
X887848Y203925D01*
X889285Y205839D01*
X889876Y205594D01*
X890918Y205162D01*
X892686D01*
X894320Y205839D01*
X895571Y207089D01*
X896247Y208723D01*
Y210491D01*
X895687Y211844D01*
Y225798D01*
X895391Y227284D01*
X894549Y228545D01*
X825077Y298017D01*
X826035Y300483D01*
X827844Y300682D01*
X909805Y218722D01*
D02*
G37*
G36*
X893338Y187406D02*
X894598Y186563D01*
X896085Y186268D01*
X900817D01*
X902170Y185707D01*
X903938D01*
X905572Y186384D01*
X906822Y187635D01*
X907264Y188702D01*
X909805Y188197D01*
Y139593D01*
X909744Y139532D01*
X909068Y137899D01*
Y136130D01*
X909744Y134497D01*
X910995Y133246D01*
X912628Y132570D01*
X914397D01*
X916030Y133246D01*
X917281Y134497D01*
X917958Y136130D01*
Y137899D01*
X917574Y138825D01*
Y153932D01*
X919919Y155709D01*
X921687D01*
X923674Y153783D01*
Y126394D01*
X913726Y116446D01*
X911812Y117957D01*
X912061Y118557D01*
X912489Y119591D01*
Y121359D01*
X911812Y122993D01*
X910562Y124243D01*
X908928Y124920D01*
X907160D01*
X905526Y124243D01*
X904276Y122993D01*
X903715Y121640D01*
X874860Y92785D01*
X788536D01*
X787402Y94748D01*
X785629Y96522D01*
X783456Y97776D01*
X781034Y98425D01*
X778526D01*
X776104Y97776D01*
X773932Y96522D01*
X772158Y94748D01*
X770904Y92577D01*
X770255Y90154D01*
Y87646D01*
X770904Y85224D01*
X772158Y83052D01*
X773932Y81278D01*
X776104Y80024D01*
X778526Y79375D01*
X781034D01*
X783456Y80024D01*
X785629Y81278D01*
X787402Y83052D01*
X788536Y85015D01*
X876469D01*
X877955Y85311D01*
X879215Y86153D01*
X908486Y115423D01*
X909134Y115446D01*
X910222Y112942D01*
X851965Y54685D01*
X662009D01*
X562685Y154009D01*
Y162124D01*
X562389Y163611D01*
X561547Y164871D01*
X558571Y167847D01*
X557311Y168689D01*
X555824Y168985D01*
X549776D01*
X548642Y170949D01*
X548215Y171375D01*
X549267Y173915D01*
X709591D01*
X759253Y124253D01*
X760513Y123411D01*
X762000Y123115D01*
X771533D01*
X772585Y120575D01*
X772158Y120148D01*
X770904Y117977D01*
X770255Y115554D01*
Y113046D01*
X770904Y110624D01*
X772158Y108451D01*
X773932Y106678D01*
X776104Y105424D01*
X778526Y104775D01*
X781034D01*
X783456Y105424D01*
X785629Y106678D01*
X787402Y108451D01*
X788536Y110415D01*
X839090D01*
X840577Y110711D01*
X841837Y111553D01*
X846603Y116319D01*
X847956Y116880D01*
X849206Y118130D01*
X849883Y119764D01*
Y121532D01*
X849206Y123166D01*
X847956Y124416D01*
X846322Y125093D01*
X846151D01*
X845099Y127633D01*
X846800Y129334D01*
X848152Y129894D01*
X849403Y131144D01*
X850080Y132778D01*
Y134546D01*
X849403Y136180D01*
X848152Y137430D01*
X846519Y138107D01*
X846544Y140637D01*
X847021D01*
X848655Y141313D01*
X849905Y142564D01*
X850582Y144197D01*
Y145966D01*
X849905Y147599D01*
X848655Y148850D01*
X847021Y149527D01*
X846240D01*
X845142Y152021D01*
X847909Y154788D01*
X849262Y155348D01*
X850512Y156599D01*
X851189Y158232D01*
Y160000D01*
X850512Y161634D01*
X849262Y162885D01*
X847628Y163561D01*
X845860D01*
X844226Y162885D01*
X842976Y161634D01*
X842415Y160281D01*
X838419Y156285D01*
X788027D01*
X786975Y158825D01*
X787402Y159251D01*
X788536Y161215D01*
X800100D01*
X801587Y161511D01*
X802847Y162353D01*
X814409Y173915D01*
X891611D01*
X897235Y168291D01*
X897796Y166938D01*
X899046Y165687D01*
X900680Y165011D01*
X902448D01*
X904082Y165687D01*
X905332Y166938D01*
X906009Y168571D01*
Y170340D01*
X905332Y171974D01*
X904082Y173224D01*
X902729Y173784D01*
X895967Y180547D01*
X894706Y181389D01*
X893220Y181685D01*
X816517D01*
X815545Y184031D01*
X823077Y191563D01*
X844372D01*
X845541Y191079D01*
X847309D01*
X848943Y191756D01*
X850193Y193006D01*
X850870Y194640D01*
Y196408D01*
X850318Y197740D01*
X850824Y199085D01*
X851547Y200280D01*
X880463D01*
X893338Y187406D01*
D02*
G37*
G36*
X772158Y260851D02*
X772585Y260425D01*
X771533Y257885D01*
X759270D01*
X757784Y257589D01*
X756524Y256747D01*
X753548Y253771D01*
X752706Y252511D01*
X752410Y251024D01*
Y193476D01*
X752706Y191989D01*
X753548Y190729D01*
X756524Y187753D01*
X757784Y186911D01*
X759270Y186615D01*
X771024D01*
X772158Y184652D01*
X772585Y184225D01*
X771533Y181685D01*
X747189D01*
X740485Y188389D01*
Y252391D01*
X750909Y262815D01*
X771024D01*
X772158Y260851D01*
D02*
G37*
G36*
X772585Y171375D02*
X772158Y170949D01*
X770904Y168776D01*
X770255Y166354D01*
Y163846D01*
X770904Y161423D01*
X772158Y159251D01*
X772585Y158825D01*
X771533Y156285D01*
X763609D01*
X748325Y171569D01*
X749297Y173915D01*
X771533D01*
X772585Y171375D01*
D02*
G37*
G36*
X843800Y140454D02*
X843318Y137514D01*
X843117Y137430D01*
X841866Y136180D01*
X841306Y134827D01*
X837363Y130885D01*
X788027D01*
X786975Y133425D01*
X787402Y133851D01*
X788656Y136024D01*
X789305Y138446D01*
Y140638D01*
X789864Y141197D01*
X842941D01*
X843800Y140454D01*
D02*
G37*
G36*
X759253Y149653D02*
X760513Y148811D01*
X762000Y148515D01*
X771533D01*
X772585Y145975D01*
X772158Y145548D01*
X770904Y143377D01*
X770255Y140954D01*
Y138446D01*
X770904Y136024D01*
X772158Y133851D01*
X772585Y133425D01*
X771533Y130885D01*
X763609D01*
X713947Y180547D01*
X712687Y181389D01*
X711200Y181685D01*
X549267D01*
X548215Y184225D01*
X548642Y184652D01*
X549776Y186615D01*
X722291D01*
X759253Y149653D01*
D02*
G37*
G36*
X839127Y122769D02*
X840033Y120737D01*
X837481Y118185D01*
X788536D01*
X787402Y120148D01*
X786975Y120575D01*
X788027Y123115D01*
X838820D01*
X839127Y122769D01*
D02*
G37*
D46*
X855980Y723900D02*
D03*
D48*
X406400Y812800D02*
D03*
D50*
X381000D02*
D03*
D54*
X855980Y698500D02*
D03*
D56*
X66620Y696133D02*
X72021Y701534D01*
X43443Y696133D02*
X66620D01*
X50800Y723806D02*
Y863600D01*
Y723806D02*
X64142Y710464D01*
X25400Y714176D02*
X43443Y696133D01*
X50800Y863600D02*
X127000Y939800D01*
X336551Y798357D02*
X338092Y796816D01*
X338436D01*
X213290Y796879D02*
X213633D01*
X215112Y798357D01*
X336551D01*
X182866Y838317D02*
X183334Y837848D01*
X219039D01*
X244087Y812800D02*
X355600D01*
X219039Y837848D02*
X244087Y812800D01*
X230039Y805419D02*
Y805762D01*
X229404Y806397D02*
X230039Y805762D01*
X229404Y806397D02*
Y806932D01*
X205919Y830417D02*
X229404Y806932D01*
X102867Y830417D02*
X205919D01*
X193233Y781512D02*
X425912D01*
X457200Y812800D01*
X143024Y807720D02*
X188744Y762000D01*
X106680Y807720D02*
X143024D01*
X188744Y762000D02*
X508000D01*
X81119Y807881D02*
X152400Y736600D01*
X81119Y807881D02*
Y818868D01*
X454586Y822695D02*
X532896D01*
X571500Y861300D01*
X428706Y796815D02*
X454586Y822695D01*
X421686Y796815D02*
X428706D01*
X584200Y787400D02*
Y838200D01*
X302466Y909547D02*
X308279D01*
X311628Y906198D01*
Y872236D02*
Y906198D01*
Y872236D02*
X320289Y863575D01*
X380354Y939800D02*
X410024Y910130D01*
Y910002D02*
Y910130D01*
X127000Y939800D02*
X380354D01*
X113089Y951289D02*
X394313D01*
X409351Y936250D01*
X98794Y826344D02*
X102867Y830417D01*
X225400Y744354D02*
X470806D01*
X482102Y755650D01*
X210836Y571515D02*
X235235D01*
X243823Y562928D01*
Y530112D02*
Y562928D01*
X116878Y441054D02*
X117127D01*
X88129Y469803D02*
X116878Y441054D01*
X125427Y427873D02*
Y507394D01*
Y427873D02*
X155835Y397465D01*
X122480Y510341D02*
Y510685D01*
Y510341D02*
X125427Y507394D01*
X895514Y491591D02*
Y536891D01*
Y491591D02*
X914400Y472706D01*
X848674Y582812D02*
X848917Y582569D01*
X809897Y625505D02*
X848674Y586728D01*
Y582812D02*
Y586728D01*
X114374Y711270D02*
X114443Y711200D01*
X152400D01*
X279400Y677852D02*
X282376Y680828D01*
X288610D02*
X308770Y660668D01*
X282376Y680828D02*
X288610D01*
X279400Y663376D02*
Y677852D01*
X308770Y660668D02*
X396850D01*
X228096Y114300D02*
X267161Y153365D01*
X210821Y114300D02*
X228096D01*
X122958Y183582D02*
X141440Y165100D01*
X210821D01*
X186846Y88900D02*
X210821D01*
X129976Y121413D02*
X154334D01*
X186846Y88900D01*
X124856Y126532D02*
Y126609D01*
Y126532D02*
X129976Y121413D01*
X172675Y75847D02*
X179692Y68829D01*
X410509D01*
X254000Y177800D02*
Y198120D01*
X210821Y241300D02*
X254000Y198120D01*
X279400Y177800D02*
Y251163D01*
X263863Y266700D02*
X279400Y251163D01*
X210821Y266700D02*
X263863D01*
X166298Y184103D02*
X172601Y177800D01*
X228600D01*
X241300Y165100D01*
X449580D01*
X73381Y209483D02*
X73568Y209670D01*
X74129D01*
X80359Y215900D01*
X210821D01*
X131736Y46064D02*
X465995D01*
X476992Y57062D02*
Y107207D01*
X465995Y46064D02*
X476992Y57062D01*
X74388Y103412D02*
X131736Y46064D01*
X469900Y114300D02*
X476992Y107207D01*
X449580Y114300D02*
X469900D01*
X74497Y120296D02*
Y120405D01*
X74388Y120187D02*
X74497Y120296D01*
X74388Y103412D02*
Y120187D01*
X431337Y266700D02*
X449580D01*
X367837Y330200D02*
X431337Y266700D01*
X51497Y330200D02*
X367837D01*
X27352Y306055D02*
X51497Y330200D01*
X27352Y205025D02*
Y306055D01*
Y205025D02*
X35214Y197162D01*
X164983Y145119D02*
X170402Y139700D01*
X210821D01*
X104517Y145119D02*
X164983D01*
X75316Y133320D02*
X89326D01*
X92571Y130076D01*
X410509Y68829D02*
X430580Y88900D01*
X449580D01*
X74912Y145849D02*
X90700D01*
X102529Y95085D02*
Y134021D01*
X90700Y145849D02*
X102529Y134021D01*
Y95085D02*
X142335Y55279D01*
X456963D01*
X468150Y66466D01*
Y98624D01*
X434776Y101600D02*
X465174D01*
X468150Y98624D01*
X74817Y145944D02*
X74912Y145849D01*
X431800Y121919D02*
X449580Y139700D01*
X431800Y104576D02*
Y121919D01*
Y104576D02*
X434776Y101600D01*
X75589Y158673D02*
X77342D01*
X115120Y196451D01*
X202130D01*
X208081Y190500D01*
X210821D01*
X351784Y312600D02*
X435148Y229235D01*
X453308D01*
X151392Y312600D02*
X351784D01*
X449580Y190500D02*
X463241D01*
X470139Y197398D01*
Y212404D01*
X453308Y229235D02*
X470139Y212404D01*
X92792Y254000D02*
X151392Y312600D01*
X81383Y254000D02*
X92792D01*
X73629Y246246D02*
X81383Y254000D01*
X73629Y235080D02*
Y246246D01*
X345901Y303808D02*
X433371Y216338D01*
X449142D01*
X190541Y303808D02*
X345901D01*
X449142Y216338D02*
X449580Y215900D01*
X177719Y290987D02*
X190541Y303808D01*
X169071Y234921D02*
X177719Y243569D01*
Y290987D01*
X355315Y321384D02*
X435399Y241300D01*
X54928Y321384D02*
X355315D01*
X435399Y241300D02*
X449580D01*
X35453Y301909D02*
X54928Y321384D01*
X35453Y222740D02*
Y301909D01*
Y222740D02*
X36008Y222184D01*
X150012Y36374D02*
X150255Y36617D01*
X151153D02*
X151363Y36827D01*
X150255Y36617D02*
X151153D01*
X151363Y36827D02*
X473042D01*
X482600Y435027D02*
Y501271D01*
X449580Y419100D02*
X466673D01*
X482600Y435027D01*
X449580Y520700D02*
X464623D01*
X482600Y538677D01*
Y611583D01*
X177800Y609600D02*
X371628D01*
X435127Y546100D02*
X449580D01*
X371628Y609600D02*
X435127Y546100D01*
X541360Y88560D02*
X604679D01*
X655139Y38100D01*
X859997D01*
X483343Y47127D02*
Y305543D01*
X473042Y36827D02*
X483343Y47127D01*
Y305543D02*
X527050Y349250D01*
X920075D01*
X162831Y494823D02*
X163529D01*
X176387Y481965D01*
X215818D01*
X215881Y481902D01*
X236336D01*
X256066Y517695D02*
Y517869D01*
X243823Y530112D02*
X256066Y517869D01*
X162268Y533426D02*
X162990D01*
X163015Y533400D01*
X228600D01*
X230055Y495300D02*
X233117Y498362D01*
X210821Y495300D02*
X230055D01*
X164639Y558886D02*
X164725Y558800D01*
X228600D01*
X205105Y591185D02*
X210821Y596900D01*
X177729Y569492D02*
X199422Y591185D01*
X205105D01*
X215900Y444500D02*
X228600Y457200D01*
X210821Y444500D02*
X215900D01*
X82489Y469588D02*
X82704Y469803D01*
X88129D01*
X168405Y469900D02*
X210821D01*
X152400Y453895D02*
X168405Y469900D01*
X152400Y431800D02*
Y453895D01*
X137648Y605900D02*
X151752Y620003D01*
X76200Y533400D02*
Y545788D01*
X136312Y605900D01*
X151752Y620003D02*
X396107D01*
X136312Y605900D02*
X137648D01*
X396107Y620003D02*
X419211Y596900D01*
X449580D01*
X50800Y366014D02*
Y406400D01*
Y366014D02*
X61214Y355600D01*
X914400D01*
X965200Y406400D01*
X163636Y420564D02*
Y450798D01*
X171546Y458707D01*
X163636Y420564D02*
X177800Y406400D01*
X380654Y507654D02*
X476218D01*
X482600Y501271D01*
X279400Y406400D02*
X380654Y507654D01*
X177800Y406400D02*
X279400D01*
X74858Y431545D02*
X117863Y388541D01*
X73940Y460817D02*
Y482816D01*
Y460817D02*
X74858Y459898D01*
Y431545D02*
Y459898D01*
X117863Y388541D02*
X321321D01*
X402680Y469900D01*
X449580D01*
X67821Y425928D02*
Y457349D01*
Y425928D02*
X113673Y380075D01*
X321835D01*
X386260Y444500D01*
X449580D01*
X248053Y508000D02*
X254000Y502053D01*
X162764Y507841D02*
X162923Y508000D01*
X254000Y462280D02*
Y502053D01*
X162923Y508000D02*
X248053D01*
X210821Y419100D02*
X254000Y462280D01*
X162764Y507841D02*
X162764D01*
X165071Y571796D02*
X165881D01*
X177800Y583715D01*
Y609600D01*
X151315Y628547D02*
X456656D01*
X135018Y612250D02*
X151315Y628547D01*
X456656D02*
X475928Y609274D01*
X131917Y612250D02*
X135018D01*
X78467Y558800D02*
X131917Y612250D01*
X475928Y577528D02*
Y609274D01*
X469900Y571500D02*
X475928Y577528D01*
X76200Y558800D02*
X78467D01*
X449580Y571500D02*
X469900D01*
X406400Y635000D02*
X406503Y634897D01*
X459286D01*
X152503D02*
X152606Y635000D01*
X406400D01*
X459286Y634897D02*
X482600Y611583D01*
X80238Y571814D02*
X143321Y634897D01*
X152503D01*
X73471Y571814D02*
X80238D01*
X117793Y527672D02*
X124764Y520700D01*
X101702Y527672D02*
X117793D01*
X124764Y520700D02*
X210821D01*
X69186Y495156D02*
X101702Y527672D01*
X69037Y495156D02*
X69186D01*
X406400Y660996D02*
X406593Y660803D01*
X406400Y660996D02*
Y685800D01*
X139093Y646940D02*
X262964D01*
X76353Y584200D02*
X139093Y646940D01*
X262964D02*
X279400Y663376D01*
X681052Y653818D02*
X687606Y660372D01*
X403700Y653818D02*
X681052D01*
X396850Y660668D02*
X403700Y653818D01*
X687606Y660372D02*
X824689D01*
X863600Y621461D01*
Y609600D02*
Y621461D01*
X155835Y397465D02*
X316206D01*
X414041Y495300D01*
X449580D01*
X404134Y645111D02*
X404478D01*
X299470Y647468D02*
X401778D01*
X289531Y657407D02*
X299470Y647468D01*
X401778D02*
X404134Y645111D01*
X289531Y657407D02*
Y660579D01*
X289288Y660822D02*
X289531Y660579D01*
X685084Y666830D02*
X685125Y666871D01*
X684268Y666830D02*
X685084D01*
X685125Y666871D02*
X717671D01*
X736600Y685800D01*
X684227Y666871D02*
X684268Y666830D01*
X85978Y541716D02*
Y542270D01*
X89808Y546100D01*
X210821D01*
X859997Y38100D02*
X942806Y120909D01*
Y169288D01*
X927559Y163277D02*
Y191863D01*
X927604Y191908D01*
Y192806D01*
X927559Y124785D02*
Y157032D01*
Y163277D02*
X927788Y163048D01*
X927604Y192806D02*
X927847Y193049D01*
X927559Y157032D02*
X927788Y157261D01*
Y163048D01*
X915801Y565194D02*
X937917D01*
X904743Y554136D02*
X915801Y565194D01*
X886016Y531842D02*
X886183Y532009D01*
Y536217D01*
X850900Y571500D02*
X886183Y536217D01*
X849272Y571500D02*
X850900D01*
X811172Y609600D02*
X849272Y571500D01*
X764976Y609600D02*
X811172D01*
X762000Y606624D02*
X764976Y609600D01*
X762000Y563880D02*
Y606624D01*
Y563880D02*
X779780Y546100D01*
X858683Y537096D02*
Y553907D01*
X847837Y564753D02*
X858683Y553907D01*
X811927Y564753D02*
X847837D01*
X846221Y524635D02*
X858683Y537096D01*
X846221Y518404D02*
Y524635D01*
X779780Y596900D02*
X811927Y564753D01*
X798903Y552377D02*
X846519D01*
X779780Y571500D02*
X798903Y552377D01*
X906513Y500284D02*
Y539028D01*
X895081Y550460D02*
Y565282D01*
Y550460D02*
X906513Y539028D01*
X817699Y642664D02*
X895081Y565282D01*
X884904Y547502D02*
X895514Y536891D01*
X814168Y635000D02*
X884904Y564264D01*
Y547502D02*
Y564264D01*
X906513Y500284D02*
X914618Y492179D01*
X541020Y596900D02*
X571500D01*
X609600Y635000D01*
X814168D01*
X840464Y457200D02*
X846474Y463210D01*
X553720Y457200D02*
X840464D01*
X541020Y469900D02*
X553720Y457200D01*
X543403Y642664D02*
X817699D01*
X519912Y619173D02*
X543403Y642664D01*
X519912Y578950D02*
X527361Y571500D01*
X541020D01*
X519912Y578950D02*
Y619173D01*
X920211Y443200D02*
X923008Y445997D01*
X854831Y443200D02*
X920211D01*
X811648Y419100D02*
X811767Y419218D01*
X830850D01*
X854831Y443200D01*
X779780Y419100D02*
X811648D01*
X521969Y381000D02*
X838200D01*
X508000Y394969D02*
Y482600D01*
Y394969D02*
X521969Y381000D01*
X863600Y406400D02*
X939800D01*
X838200Y381000D02*
X863600Y406400D01*
X978355Y526170D02*
X979128Y525397D01*
Y445728D02*
Y525397D01*
X939800Y406400D02*
X979128Y445728D01*
X520700Y495300D02*
X541020D01*
X508000Y482600D02*
X520700Y495300D01*
X840541Y482600D02*
X846816Y488876D01*
X736600Y482600D02*
X840541D01*
X698500Y520700D02*
X736600Y482600D01*
X541020Y520700D02*
X698500D01*
X841098Y469900D02*
X846452Y475254D01*
X779780Y469900D02*
X841098D01*
X920075Y349250D02*
X920299Y349474D01*
X939800Y482600D02*
X947539Y474861D01*
Y433285D02*
Y474861D01*
X939800Y498798D02*
X942297Y501295D01*
X939800Y482600D02*
Y498798D01*
X927004Y412750D02*
X947539Y433285D01*
X571500Y419100D02*
X584200Y406400D01*
X847356Y412750D02*
X927004D01*
X541020Y419100D02*
X571500D01*
X834656Y400050D02*
X847356Y412750D01*
X632370Y400050D02*
X834656D01*
X584200Y406400D02*
X626020D01*
X632370Y400050D01*
X922582Y464565D02*
Y506367D01*
X915236Y457219D02*
X922582Y464565D01*
X860246Y508000D02*
X911027Y457219D01*
X915236D01*
X838200Y508000D02*
X860246D01*
X825500Y495300D02*
X838200Y508000D01*
X779780Y495300D02*
X825500D01*
X736600Y611097D02*
X751008Y625505D01*
X809897D01*
X736600Y533400D02*
Y611097D01*
X749300Y520700D02*
X779780D01*
X736600Y533400D02*
X749300Y520700D01*
X841472Y444500D02*
X846254Y449282D01*
X779780Y444500D02*
X841472D01*
X930847Y425613D02*
Y538531D01*
X848263Y422638D02*
X927871D01*
X930847Y425613D01*
Y538531D02*
X940609Y548292D01*
X832026Y406400D02*
X848263Y422638D01*
X635000Y406400D02*
X832026D01*
X541020Y444500D02*
X596900D01*
X635000Y406400D01*
X705820Y546100D02*
X743569Y508351D01*
X541020Y546100D02*
X705820D01*
X743569Y508351D02*
X815844D01*
X847219Y539726D01*
X908044Y120475D02*
X908044D01*
X876469Y88900D02*
X908044Y120475D01*
X779780Y88900D02*
X876469D01*
X798791Y222289D02*
X846886D01*
X779780Y241300D02*
X798791Y222289D01*
X846886D02*
X847025Y222150D01*
X803820Y177800D02*
X821468Y195448D01*
X846348D02*
X846425Y195524D01*
X821468Y195448D02*
X846348D01*
X896085Y190152D02*
X903054D01*
X882072Y204165D02*
X896085Y190152D01*
X791515Y204165D02*
X882072D01*
X779780Y215900D02*
X791515Y204165D01*
X756295Y193476D02*
X759270Y190500D01*
X779780D01*
X759270Y254000D02*
X829518D01*
X756295Y251024D02*
X759270Y254000D01*
X756295Y193476D02*
Y251024D01*
X660400Y50800D02*
X853574D01*
X927559Y124785D01*
X541020Y165100D02*
X555824D01*
X558800Y152400D02*
Y162124D01*
X555824Y165100D02*
X558800Y162124D01*
Y152400D02*
X660400Y50800D01*
X857366Y44450D02*
X935169Y122252D01*
Y213467D01*
X657770Y44450D02*
X857366D01*
X935169Y213467D02*
X935432Y213731D01*
X541020Y114300D02*
X587920D01*
X657770Y44450D01*
X788254Y145082D02*
X846137D01*
X782873Y139700D02*
X788254Y145082D01*
X779780Y139700D02*
X782873D01*
X831850Y311150D02*
X920392Y222608D01*
X606970Y311150D02*
X831850D01*
X920392Y160565D02*
Y222608D01*
Y160565D02*
X920803Y160154D01*
X600620Y304800D02*
X606970Y311150D01*
X533400Y304800D02*
X600620D01*
X521716Y293116D02*
X533400Y304800D01*
X521716Y244349D02*
Y293116D01*
X540947Y241373D02*
X541020Y241300D01*
X521716Y244349D02*
X524692Y241373D01*
X540947D01*
X829518Y254000D02*
X848045Y235474D01*
Y234739D02*
Y235474D01*
X541020Y190500D02*
X723900D01*
X762000Y152400D01*
X840028D02*
X846744Y159116D01*
X762000Y152400D02*
X840028D01*
X654050Y298450D02*
X819150D01*
X891802Y209607D02*
Y225798D01*
X819150Y298450D02*
X891802Y225798D01*
X571500Y215900D02*
X654050Y298450D01*
X541020Y215900D02*
X571500D01*
X812800Y177800D02*
X893220D01*
X800100Y165100D02*
X812800Y177800D01*
X779780Y165100D02*
X800100D01*
X893220Y177800D02*
X901564Y169456D01*
X779780Y114300D02*
X839090D01*
X845438Y120648D01*
X736600Y254000D02*
X749300Y266700D01*
X736600Y186780D02*
Y254000D01*
X749300Y266700D02*
X779780D01*
X745580Y177800D02*
X803820D01*
X736600Y186780D02*
X745580Y177800D01*
X609600Y304800D02*
X829220D01*
X913689Y137191D02*
Y220331D01*
X829220Y304800D02*
X913689Y220331D01*
X541020Y266700D02*
X571500D01*
X609600Y304800D01*
X913512Y137015D02*
X913689Y137191D01*
X838972Y127000D02*
X845635Y133662D01*
X711200Y177800D02*
X762000Y127000D01*
X838972D01*
X517363Y161763D02*
X533400Y177800D01*
X711200D01*
X517363Y143604D02*
Y161763D01*
Y143604D02*
X520338Y140628D01*
X540092D02*
X541020Y139700D01*
X520338Y140628D02*
X540092D01*
X54824Y86426D02*
X115851Y25400D01*
X863600D01*
X914400Y76200D01*
X620998Y747998D02*
X635000Y762000D01*
X580033Y747998D02*
X620998D01*
X566031Y762000D02*
X580033Y747998D01*
X558800Y762000D02*
X566031D01*
X25400Y863600D02*
X113089Y951289D01*
X304800Y685800D02*
X355600D01*
X254000Y736600D02*
X304800Y685800D01*
X152400Y736600D02*
X254000D01*
X25400Y714176D02*
Y863600D01*
X787400Y787400D02*
Y812800D01*
X736600Y736600D02*
X787400Y787400D01*
X533400Y736600D02*
X736600D01*
X508000Y762000D02*
X533400Y736600D01*
X812800Y863600D02*
X939800D01*
X798798Y849598D02*
X812800Y863600D01*
X778510Y849598D02*
X798798D01*
X635000Y762000D02*
X660400Y787400D01*
Y838200D01*
X609600Y787400D02*
Y838200D01*
X586304Y764104D02*
X609600Y787400D01*
X582096Y764104D02*
X586304D01*
X533400Y812800D02*
X582096Y764104D01*
X457200Y812800D02*
X533400D01*
X762000Y787400D02*
Y833088D01*
X778510Y849598D01*
X787400Y812800D02*
Y819118D01*
X812800Y844518D01*
X863600Y838200D02*
X889000D01*
X838200Y812800D02*
X863600Y838200D01*
D57*
X167625Y933767D02*
X187371D01*
X163008Y929150D02*
X167625Y933767D01*
X163008Y902583D02*
Y929150D01*
Y902583D02*
X177800Y887792D01*
X189712Y933222D02*
X190198Y932736D01*
X187916Y933222D02*
X189712D01*
X187371Y933767D02*
X187916Y933222D01*
X177800Y873800D02*
X182900Y868700D01*
X177800Y873800D02*
Y887792D01*
D59*
X221000Y923400D02*
D03*
X134600D02*
D03*
D60*
X221000Y965200D02*
D03*
X134600D02*
D03*
D61*
X622300Y861300D02*
D03*
X647700D02*
D03*
X596900D02*
D03*
D62*
X571500D02*
D03*
D63*
X206700Y928400D02*
D03*
X148900D02*
D03*
D64*
X449580Y266700D02*
D03*
Y241300D02*
D03*
Y215900D02*
D03*
Y190500D02*
D03*
Y165100D02*
D03*
Y139700D02*
D03*
Y88900D02*
D03*
Y114300D02*
D03*
X210821Y88900D02*
D03*
Y114300D02*
D03*
Y139700D02*
D03*
Y165100D02*
D03*
Y190500D02*
D03*
Y215900D02*
D03*
Y241300D02*
D03*
Y469900D02*
D03*
X449580Y596900D02*
D03*
X210821Y571500D02*
D03*
X449580Y419100D02*
D03*
Y469900D02*
D03*
X210821Y495300D02*
D03*
X449580Y444500D02*
D03*
X210821Y419100D02*
D03*
X449580Y546100D02*
D03*
Y571500D02*
D03*
Y520700D02*
D03*
X210821D02*
D03*
X449580Y495300D02*
D03*
X210821Y444500D02*
D03*
Y546100D02*
D03*
X541020Y469900D02*
D03*
Y571500D02*
D03*
X779780D02*
D03*
Y419100D02*
D03*
X541020Y495300D02*
D03*
X779780Y546100D02*
D03*
X541020Y520700D02*
D03*
X779780Y469900D02*
D03*
X541020Y419100D02*
D03*
X779780Y495300D02*
D03*
Y520700D02*
D03*
Y596900D02*
D03*
Y444500D02*
D03*
X541020D02*
D03*
Y546100D02*
D03*
X779780Y266700D02*
D03*
Y241300D02*
D03*
Y215900D02*
D03*
Y190500D02*
D03*
Y165100D02*
D03*
Y139700D02*
D03*
Y88900D02*
D03*
Y114300D02*
D03*
X541020Y88900D02*
D03*
Y114300D02*
D03*
Y139700D02*
D03*
Y165100D02*
D03*
Y190500D02*
D03*
Y215900D02*
D03*
Y241300D02*
D03*
D65*
X210821Y266700D02*
D03*
Y596900D02*
D03*
X541020D02*
D03*
Y266700D02*
D03*
D66*
X72021Y701534D02*
D03*
X64142Y710464D02*
D03*
X338436Y796816D02*
D03*
X182866Y838317D02*
D03*
X213290Y796879D02*
D03*
X230039Y805419D02*
D03*
X193233Y781512D02*
D03*
X81119Y818868D02*
D03*
X914356Y590594D02*
D03*
X228600Y685800D02*
D03*
X160460Y774029D02*
D03*
X117773Y908763D02*
D03*
X584200Y838200D02*
D03*
X421686Y796815D02*
D03*
X584200Y787400D02*
D03*
X302466Y909547D02*
D03*
X320289Y863575D02*
D03*
X410024Y910002D02*
D03*
X409351Y936250D02*
D03*
X225400Y744354D02*
D03*
X190198Y932736D02*
D03*
X182900Y868700D02*
D03*
X117127Y441054D02*
D03*
X914460Y472706D02*
D03*
X848917Y582569D02*
D03*
X114374Y711270D02*
D03*
X288610Y680828D02*
D03*
X267161Y153365D02*
D03*
X122958Y183582D02*
D03*
X124856Y126609D02*
D03*
X172675Y75847D02*
D03*
X254000Y177800D02*
D03*
X166298Y184103D02*
D03*
X73381Y209483D02*
D03*
X74497Y120405D02*
D03*
X35214Y197162D02*
D03*
X104517Y145119D02*
D03*
X92571Y130076D02*
D03*
X75316Y133320D02*
D03*
X74817Y145944D02*
D03*
X75589Y158673D02*
D03*
X73629Y235080D02*
D03*
X169071Y234921D02*
D03*
X36008Y222184D02*
D03*
X279400Y177800D02*
D03*
X150012Y36374D02*
D03*
X162831Y494823D02*
D03*
X236336Y481902D02*
D03*
X256066Y517695D02*
D03*
X162268Y533426D02*
D03*
X228600Y533400D02*
D03*
X233117Y498362D02*
D03*
X164639Y558886D02*
D03*
X177729Y569492D02*
D03*
X228600Y558800D02*
D03*
Y457200D02*
D03*
X82489Y469588D02*
D03*
X152400Y431800D02*
D03*
X76200Y533400D02*
D03*
X50800Y406400D02*
D03*
X965200D02*
D03*
X171546Y458707D02*
D03*
X73940Y482816D02*
D03*
X67821Y457349D02*
D03*
X162764Y507841D02*
D03*
X165071Y571796D02*
D03*
X76200Y558800D02*
D03*
X73471Y571814D02*
D03*
X69037Y495156D02*
D03*
X406400Y685800D02*
D03*
X406593Y660803D02*
D03*
X863600Y609600D02*
D03*
X76200Y584200D02*
D03*
X122480Y510685D02*
D03*
X404478Y645111D02*
D03*
X289288Y660822D02*
D03*
X683943Y666587D02*
D03*
X736600Y685800D02*
D03*
X85978Y541716D02*
D03*
X942806Y169288D02*
D03*
X927847Y193049D02*
D03*
X937917Y565194D02*
D03*
X904743Y554136D02*
D03*
X886016Y531842D02*
D03*
X846221Y518404D02*
D03*
X846519Y552377D02*
D03*
X846474Y463210D02*
D03*
X914618Y492179D02*
D03*
X923008Y445997D02*
D03*
X978355Y526170D02*
D03*
X846816Y488876D02*
D03*
X846452Y475254D02*
D03*
X920299Y349474D02*
D03*
X942297Y501295D02*
D03*
X922582Y506367D02*
D03*
X846254Y449282D02*
D03*
X940609Y548292D02*
D03*
X847219Y539726D02*
D03*
X908044Y120475D02*
D03*
X847025Y222150D02*
D03*
X846425Y195524D02*
D03*
X903054Y190152D02*
D03*
X935432Y213731D02*
D03*
X846137Y145082D02*
D03*
X920803Y160154D02*
D03*
X848045Y234739D02*
D03*
X846744Y159116D02*
D03*
X891802Y209607D02*
D03*
X901564Y169456D02*
D03*
X845438Y120648D02*
D03*
X913512Y137015D02*
D03*
X845635Y133662D02*
D03*
X54824Y86426D02*
D03*
X914400Y76200D02*
D03*
X152400Y711200D02*
D03*
X355600Y685800D02*
D03*
X98794Y826344D02*
D03*
X106680Y807720D02*
D03*
X939800Y863600D02*
D03*
X660400Y838200D02*
D03*
X609600D02*
D03*
X778510Y849598D02*
D03*
X889000Y838200D02*
D03*
X838200Y812800D02*
D03*
X787400D02*
D03*
X812800Y844518D02*
D03*
D67*
X355600Y812800D02*
D03*
X558800Y762000D02*
D03*
X482102Y755650D02*
D03*
X635000Y762000D02*
D03*
X762000Y787400D02*
D03*
D68*
X50800Y642620D02*
D03*
X304800Y134620D02*
D03*
X254000Y236220D02*
D03*
Y439420D02*
D03*
X304800Y541020D02*
D03*
X406400Y134620D02*
D03*
X355600Y236220D02*
D03*
X406400Y337820D02*
D03*
Y541020D02*
D03*
X508000Y134620D02*
D03*
Y541020D02*
D03*
X457200Y642620D02*
D03*
Y845820D02*
D03*
X609600Y134620D02*
D03*
X558800Y236220D02*
D03*
X609600Y337820D02*
D03*
X711200Y134620D02*
D03*
X660400Y236220D02*
D03*
X711200Y337820D02*
D03*
X660400Y439420D02*
D03*
X812800Y337820D02*
D03*
X762000Y439420D02*
D03*
X812800Y541020D02*
D03*
Y744220D02*
D03*
X914400D02*
D03*
M02*
