M48
;Layer_Color=9474304
;FILE_FORMAT=4:4
METRIC,TZ
;TYPE=PLATED
T01F00S00C0.4064
T02F00S00C0.5000
T03F00S00C0.5080
T05F00S00C0.9500
T06F00S00C1.0160
T07F00S00C1.1000
;TYPE=NON_PLATED
T08F00S00C0.6500
%
T01
X54824Y86426
X74497Y120405
X172675Y75847
X150012Y36374
X845438Y120648
X908044Y120475
X914400Y76200
X942806Y169288
X965200Y406400
X942297Y501295
X922582Y506367
X914618Y492179
X914460Y472706
X923008Y445997
X846254Y449282
X846474Y463210
X846452Y475254
X846816Y488876
X846221Y518404
X762000Y439420
X660400
X609600Y337820
X711200
X812800
X920299Y349474
X935432Y213731
X927847Y193049
X903054Y190152
X901564Y169456
X920803Y160154
X913512Y137015
X845635Y133662
X846137Y145082
X846744Y159116
X846425Y195524
X847025Y222150
X848045Y234739
X891802Y209607
X711200Y134620
X609600
X558800Y236220
X660400
X508000Y134620
X406400
X304800
X267161Y153365
X279400Y177800
X254000
Y236220
X169071Y234921
X166298Y184103
X355600Y236220
X406400Y337820
X254000Y439420
X228600Y457200
X236336Y481902
X233117Y498362
X256066Y517695
X162764Y507841
X162831Y494823
X171546Y458707
X152400Y431800
X117127Y441054
X82489Y469588
X73940Y482816
X69037Y495156
X67821Y457349
X50800Y406400
X122480Y510685
X73629Y235080
X73381Y209483
X36008Y222184
X35214Y197162
X75589Y158673
X74817Y145944
X75316Y133320
X92571Y130076
X104517Y145119
X124856Y126609
X122958Y183582
X85978Y541716
X76200Y533400
Y558800
X73471Y571814
X76200Y584200
X50800Y642620
X72021Y701534
X64142Y710464
X114374Y711270
X106680Y807720
X98794Y826344
X81119Y818868
X117773Y908763
X182900Y868700
X182866Y838317
X193233Y781512
X213290Y796879
X230039Y805419
X225400Y744354
X228600Y685800
X288610Y680828
X289288Y660822
X355600Y685800
X406400
X406593Y660803
X404478Y645111
X457200Y642620
X406400Y541020
X304800
X228600Y533400
Y558800
X177729Y569492
X165071Y571796
X164639Y558886
X162268Y533426
X152400Y711200
X160460Y774029
X338436Y796816
X421686Y796815
X457200Y845820
X410024Y910002
X302466Y909547
X320289Y863575
X508000Y541020
X683943Y666587
X736600Y685800
X812800Y744220
X838200Y812800
X787400
X778510Y849598
X812800Y844518
X889000Y838200
X914400Y744220
X914356Y590594
X904743Y554136
X886016Y531842
X847219Y539726
X846519Y552377
X848917Y582569
X863600Y609600
X812800Y541020
X660400Y838200
X609600
X584200
Y787400
X939800Y863600
X937917Y565194
X940609Y548292
X978355Y526170
X409351Y936250
X190198Y932736
T02
X855980Y698500
Y723900
T03
X355600Y812800
X482102Y755650
X558800Y762000
X635000
X762000Y787400
T05
X381000Y812800
X406400
T06
X210821Y88900
Y114300
X449580
Y88900
X541020
Y114300
X779780
Y88900
Y139700
Y165100
Y190500
Y215900
Y241300
Y266700
Y419100
Y444500
Y469900
Y495300
Y520700
X541020
Y495300
Y469900
Y444500
Y419100
Y266700
Y241300
Y215900
Y190500
Y165100
Y139700
X449580
Y165100
Y190500
Y215900
Y241300
Y266700
Y419100
Y444500
Y469900
Y495300
Y520700
X210821
Y495300
Y469900
Y444500
Y419100
Y266700
Y241300
Y215900
Y190500
Y165100
Y139700
Y546100
Y571500
Y596900
X449580
Y571500
Y546100
X541020
Y571500
Y596900
X779780
Y571500
Y546100
T07
X571500Y861300
X596900
X622300
X647700
T08
X148900Y928400
X206700
M30
