G04*
G04 #@! TF.GenerationSoftware,Altium Limited,Altium Designer,26.1.1 (7)*
G04*
G04 Layer_Color=8388736*
%FSLAX44Y44*%
%MOMM*%
G71*
G04*
G04 #@! TF.SameCoordinates,D0829D4D-DB1F-4D5F-AF6D-AE6A7BB7C4AD*
G04*
G04*
G04 #@! TF.FilePolarity,Negative*
G04*
G01*
G75*
%ADD19R,0.9521X1.0000*%
%ADD31R,0.4000X1.2500*%
%ADD32R,0.6949X1.2449*%
%ADD33R,0.7000X1.2500*%
G04:AMPARAMS|DCode=34|XSize=1.4132mm|YSize=0.7932mm|CornerRadius=0.1754mm|HoleSize=0mm|Usage=FLASHONLY|Rotation=90.000|XOffset=0mm|YOffset=0mm|HoleType=Round|Shape=RoundedRectangle|*
%AMROUNDEDRECTD34*
21,1,1.4132,0.4425,0,0,90.0*
21,1,1.0625,0.7932,0,0,90.0*
1,1,0.3507,0.2213,0.5313*
1,1,0.3507,0.2213,-0.5313*
1,1,0.3507,-0.2213,-0.5313*
1,1,0.3507,-0.2213,0.5313*
%
%ADD34ROUNDEDRECTD34*%
G04:AMPARAMS|DCode=35|XSize=1.4032mm|YSize=2.0232mm|CornerRadius=0.2516mm|HoleSize=0mm|Usage=FLASHONLY|Rotation=0.000|XOffset=0mm|YOffset=0mm|HoleType=Round|Shape=RoundedRectangle|*
%AMROUNDEDRECTD35*
21,1,1.4032,1.5200,0,0,0.0*
21,1,0.9000,2.0232,0,0,0.0*
1,1,0.5032,0.4500,-0.7600*
1,1,0.5032,-0.4500,-0.7600*
1,1,0.5032,-0.4500,0.7600*
1,1,0.5032,0.4500,0.7600*
%
%ADD35ROUNDEDRECTD35*%
%ADD36R,1.4532X2.0032*%
G04:AMPARAMS|DCode=37|XSize=0.8032mm|YSize=1.5532mm|CornerRadius=0.1466mm|HoleSize=0mm|Usage=FLASHONLY|Rotation=270.000|XOffset=0mm|YOffset=0mm|HoleType=Round|Shape=RoundedRectangle|*
%AMROUNDEDRECTD37*
21,1,0.8032,1.2600,0,0,270.0*
21,1,0.5100,1.5532,0,0,270.0*
1,1,0.2932,-0.6300,-0.2550*
1,1,0.2932,-0.6300,0.2550*
1,1,0.2932,0.6300,0.2550*
1,1,0.2932,0.6300,-0.2550*
%
%ADD37ROUNDEDRECTD37*%
G04:AMPARAMS|DCode=38|XSize=1.3932mm|YSize=0.6032mm|CornerRadius=0.2016mm|HoleSize=0mm|Usage=FLASHONLY|Rotation=0.000|XOffset=0mm|YOffset=0mm|HoleType=Round|Shape=RoundedRectangle|*
%AMROUNDEDRECTD38*
21,1,1.3932,0.2000,0,0,0.0*
21,1,0.9900,0.6032,0,0,0.0*
1,1,0.4032,0.4950,-0.1000*
1,1,0.4032,-0.4950,-0.1000*
1,1,0.4032,-0.4950,0.1000*
1,1,0.4032,0.4950,0.1000*
%
%ADD38ROUNDEDRECTD38*%
G04:AMPARAMS|DCode=39|XSize=1.4032mm|YSize=2.0232mm|CornerRadius=0.2516mm|HoleSize=0mm|Usage=FLASHONLY|Rotation=90.000|XOffset=0mm|YOffset=0mm|HoleType=Round|Shape=RoundedRectangle|*
%AMROUNDEDRECTD39*
21,1,1.4032,1.5200,0,0,90.0*
21,1,0.9000,2.0232,0,0,90.0*
1,1,0.5032,0.7600,0.4500*
1,1,0.5032,0.7600,-0.4500*
1,1,0.5032,-0.7600,-0.4500*
1,1,0.5032,-0.7600,0.4500*
%
%ADD39ROUNDEDRECTD39*%
G04:AMPARAMS|DCode=40|XSize=1.5132mm|YSize=0.8232mm|CornerRadius=0.1791mm|HoleSize=0mm|Usage=FLASHONLY|Rotation=0.000|XOffset=0mm|YOffset=0mm|HoleType=Round|Shape=RoundedRectangle|*
%AMROUNDEDRECTD40*
21,1,1.5132,0.4650,0,0,0.0*
21,1,1.1550,0.8232,0,0,0.0*
1,1,0.3582,0.5775,-0.2325*
1,1,0.3582,-0.5775,-0.2325*
1,1,0.3582,-0.5775,0.2325*
1,1,0.3582,0.5775,0.2325*
%
%ADD40ROUNDEDRECTD40*%
G04:AMPARAMS|DCode=41|XSize=2.2532mm|YSize=0.7932mm|CornerRadius=0.1754mm|HoleSize=0mm|Usage=FLASHONLY|Rotation=180.000|XOffset=0mm|YOffset=0mm|HoleType=Round|Shape=RoundedRectangle|*
%AMROUNDEDRECTD41*
21,1,2.2532,0.4425,0,0,180.0*
21,1,1.9025,0.7932,0,0,180.0*
1,1,0.3507,-0.9513,0.2213*
1,1,0.3507,0.9513,0.2213*
1,1,0.3507,0.9513,-0.2213*
1,1,0.3507,-0.9513,-0.2213*
%
%ADD41ROUNDEDRECTD41*%
G04:AMPARAMS|DCode=42|XSize=0.6532mm|YSize=1.2532mm|CornerRadius=0.1511mm|HoleSize=0mm|Usage=FLASHONLY|Rotation=180.000|XOffset=0mm|YOffset=0mm|HoleType=Round|Shape=RoundedRectangle|*
%AMROUNDEDRECTD42*
21,1,0.6532,0.9510,0,0,180.0*
21,1,0.3510,1.2532,0,0,180.0*
1,1,0.3022,-0.1755,0.4755*
1,1,0.3022,0.1755,0.4755*
1,1,0.3022,0.1755,-0.4755*
1,1,0.3022,-0.1755,-0.4755*
%
%ADD42ROUNDEDRECTD42*%
%ADD43R,2.0032X1.4532*%
%ADD44R,0.6532X1.7032*%
%ADD45C,0.8532*%
%ADD46O,1.2032X2.0032*%
%ADD47O,1.2032X2.3032*%
%ADD48C,1.0000*%
%ADD49C,1.8532*%
%ADD50R,1.4500X1.4500*%
G04:AMPARAMS|DCode=51|XSize=1.8532mm|YSize=1.8532mm|CornerRadius=0.5141mm|HoleSize=0mm|Usage=FLASHONLY|Rotation=180.000|XOffset=0mm|YOffset=0mm|HoleType=Round|Shape=RoundedRectangle|*
%AMROUNDEDRECTD51*
21,1,1.8532,0.8250,0,0,180.0*
21,1,0.8250,1.8532,0,0,180.0*
1,1,1.0282,-0.4125,0.4125*
1,1,1.0282,0.4125,0.4125*
1,1,1.0282,0.4125,-0.4125*
1,1,1.0282,-0.4125,-0.4125*
%
%ADD51ROUNDEDRECTD51*%
%ADD52C,1.4500*%
%ADD53C,1.8542*%
%ADD54R,1.8542X1.8542*%
%ADD55R,1.0000X1.0000*%
%ADD56C,0.7112*%
D19*
X965200Y685800D02*
D03*
Y703580D02*
D03*
D31*
X165300Y917650D02*
D03*
X160300D02*
D03*
X190300D02*
D03*
X195300D02*
D03*
X185300D02*
D03*
X180300D02*
D03*
X175300D02*
D03*
X170300D02*
D03*
D32*
X145800D02*
D03*
X209800D02*
D03*
D33*
X153800D02*
D03*
X201800D02*
D03*
D34*
X298400Y863600D02*
D03*
X279400D02*
D03*
X288900D02*
D03*
X298400Y888700D02*
D03*
X288900D02*
D03*
X279400D02*
D03*
D35*
X344800Y838200D02*
D03*
X315600D02*
D03*
X852800Y914400D02*
D03*
X232400Y838200D02*
D03*
X899800Y609600D02*
D03*
Y279400D02*
D03*
X239400Y914400D02*
D03*
X61600Y609600D02*
D03*
Y304800D02*
D03*
X264800Y838200D02*
D03*
X203200D02*
D03*
X929000Y609600D02*
D03*
X823600Y914400D02*
D03*
X725800Y711200D02*
D03*
X929000Y279400D02*
D03*
X264800Y939800D02*
D03*
X370200Y762000D02*
D03*
X268600Y914400D02*
D03*
X217800Y711200D02*
D03*
X90800Y609600D02*
D03*
X87000Y685800D02*
D03*
X217800Y762000D02*
D03*
X90800Y304800D02*
D03*
X294000Y838200D02*
D03*
X341000Y762000D02*
D03*
X116200Y685800D02*
D03*
X294000Y939800D02*
D03*
X188600Y762000D02*
D03*
X776600Y812800D02*
D03*
X747400D02*
D03*
X696600Y711200D02*
D03*
X188600D02*
D03*
D36*
X371350Y863600D02*
D03*
X339850D02*
D03*
X879350Y787400D02*
D03*
X466850D02*
D03*
X873250Y381000D02*
D03*
X847850Y50800D02*
D03*
X193550Y812800D02*
D03*
X60450Y381000D02*
D03*
X720850Y914400D02*
D03*
X136650Y863600D02*
D03*
X60450D02*
D03*
X91950D02*
D03*
X168150D02*
D03*
X371350Y914400D02*
D03*
X339850D02*
D03*
X91950Y381000D02*
D03*
X904750D02*
D03*
X847850Y787400D02*
D03*
X162050Y812800D02*
D03*
X924050Y787400D02*
D03*
X955550D02*
D03*
X752350Y914400D02*
D03*
X726950Y762000D02*
D03*
X879350Y50800D02*
D03*
X695450Y762000D02*
D03*
X498350Y787400D02*
D03*
D37*
X303100D02*
D03*
Y768400D02*
D03*
X279400D02*
D03*
Y777900D02*
D03*
Y787400D02*
D03*
D38*
X796290Y871220D02*
D03*
X778510Y863600D02*
D03*
Y871220D02*
D03*
X796290Y855980D02*
D03*
X778510D02*
D03*
D39*
X508000Y903600D02*
D03*
X558800Y725800D02*
D03*
X431800Y725800D02*
D03*
X330200D02*
D03*
X508000Y874400D02*
D03*
X558800Y696600D02*
D03*
X330200Y696600D02*
D03*
X431800D02*
D03*
X812800Y772800D02*
D03*
Y802000D02*
D03*
X736600Y878200D02*
D03*
Y849000D02*
D03*
D40*
X484700Y933450D02*
D03*
X429700D02*
D03*
Y895350D02*
D03*
Y869950D02*
D03*
Y882650D02*
D03*
Y920750D02*
D03*
Y908050D02*
D03*
Y857250D02*
D03*
Y844550D02*
D03*
X484700D02*
D03*
Y857250D02*
D03*
Y869950D02*
D03*
Y882650D02*
D03*
Y895350D02*
D03*
Y908050D02*
D03*
Y920750D02*
D03*
D41*
X867850Y501650D02*
D03*
Y171450D02*
D03*
X50800Y508000D02*
D03*
X55050Y171450D02*
D03*
X960950Y476250D02*
D03*
Y539750D02*
D03*
Y146050D02*
D03*
Y209550D02*
D03*
X148150D02*
D03*
Y146050D02*
D03*
X143900Y546100D02*
D03*
Y482600D02*
D03*
X148150Y184150D02*
D03*
X55050Y209550D02*
D03*
X148150Y222250D02*
D03*
X55050Y120650D02*
D03*
Y196850D02*
D03*
Y133350D02*
D03*
X148150Y158750D02*
D03*
Y196850D02*
D03*
Y171450D02*
D03*
Y120650D02*
D03*
X55050Y146050D02*
D03*
Y158750D02*
D03*
Y234950D02*
D03*
X148150D02*
D03*
X55050Y222250D02*
D03*
X148150Y133350D02*
D03*
X143900Y444500D02*
D03*
X50800Y520700D02*
D03*
X143900Y469900D02*
D03*
X50800Y546100D02*
D03*
X143900Y533400D02*
D03*
Y520700D02*
D03*
X50800Y495300D02*
D03*
Y571500D02*
D03*
Y558800D02*
D03*
X143900Y495300D02*
D03*
Y508000D02*
D03*
X50800Y457200D02*
D03*
X143900Y571500D02*
D03*
X50800Y482600D02*
D03*
X143900Y558800D02*
D03*
Y457200D02*
D03*
X50800Y533400D02*
D03*
Y469900D02*
D03*
X143900Y584200D02*
D03*
X50800Y444500D02*
D03*
Y584200D02*
D03*
X960950Y438150D02*
D03*
X55050Y247650D02*
D03*
X867850D02*
D03*
Y577850D02*
D03*
X148150Y247650D02*
D03*
X960950D02*
D03*
Y577850D02*
D03*
X867850Y450850D02*
D03*
Y463550D02*
D03*
Y476250D02*
D03*
Y488950D02*
D03*
Y514350D02*
D03*
Y527050D02*
D03*
Y539750D02*
D03*
Y552450D02*
D03*
Y565150D02*
D03*
X960950D02*
D03*
Y552450D02*
D03*
Y527050D02*
D03*
Y514350D02*
D03*
Y501650D02*
D03*
Y488950D02*
D03*
Y463550D02*
D03*
Y450850D02*
D03*
X867850Y438150D02*
D03*
X148150Y107950D02*
D03*
X960950Y196850D02*
D03*
Y222250D02*
D03*
Y120650D02*
D03*
X867850Y222250D02*
D03*
Y146050D02*
D03*
X960950Y158750D02*
D03*
Y171450D02*
D03*
X867850Y234950D02*
D03*
X960950D02*
D03*
X867850Y158750D02*
D03*
Y209550D02*
D03*
X960950Y184150D02*
D03*
X867850Y120650D02*
D03*
Y196850D02*
D03*
X960950Y133350D02*
D03*
X867850D02*
D03*
Y107950D02*
D03*
Y184150D02*
D03*
X960950Y107950D02*
D03*
X55050D02*
D03*
Y184150D02*
D03*
D42*
X501500Y723450D02*
D03*
X272900D02*
D03*
X374500D02*
D03*
X515366Y699008D02*
D03*
X500634D02*
D03*
X286766D02*
D03*
X272034D02*
D03*
X373634D02*
D03*
X388366D02*
D03*
X387500Y723450D02*
D03*
X285900D02*
D03*
X514500D02*
D03*
X381000Y699008D02*
D03*
X279400D02*
D03*
X508000D02*
D03*
D43*
X127000Y35050D02*
D03*
X635000Y695450D02*
D03*
X914400Y822450D02*
D03*
X635000Y726950D02*
D03*
X127000Y66550D02*
D03*
X914400Y853950D02*
D03*
D44*
X106680Y734060D02*
D03*
X121920D02*
D03*
X60960Y789940D02*
D03*
X68580D02*
D03*
X83820D02*
D03*
X91440D02*
D03*
X99060D02*
D03*
X114300D02*
D03*
X121920D02*
D03*
X129540D02*
D03*
Y734060D02*
D03*
X114300D02*
D03*
X99060D02*
D03*
X91440D02*
D03*
X76200D02*
D03*
X68580D02*
D03*
X60960D02*
D03*
X76200Y789940D02*
D03*
X83820Y734060D02*
D03*
X106680Y789940D02*
D03*
D45*
X148900Y928400D02*
D03*
X206700D02*
D03*
D46*
X134600Y965200D02*
D03*
X221000D02*
D03*
D47*
X134600Y923400D02*
D03*
X221000D02*
D03*
D48*
X855980Y723900D02*
D03*
D49*
X622300Y861300D02*
D03*
X647700D02*
D03*
X596900D02*
D03*
D50*
X406400Y812800D02*
D03*
D51*
X571500Y861300D02*
D03*
D52*
X381000Y812800D02*
D03*
D53*
X449580Y266700D02*
D03*
Y241300D02*
D03*
Y215900D02*
D03*
Y190500D02*
D03*
Y165100D02*
D03*
Y139700D02*
D03*
Y88900D02*
D03*
Y114300D02*
D03*
X210821Y88900D02*
D03*
Y114300D02*
D03*
Y139700D02*
D03*
Y165100D02*
D03*
Y190500D02*
D03*
Y215900D02*
D03*
Y241300D02*
D03*
Y469900D02*
D03*
X449580Y596900D02*
D03*
X210821Y571500D02*
D03*
X449580Y419100D02*
D03*
Y469900D02*
D03*
X210821Y495300D02*
D03*
X449580Y444500D02*
D03*
X210821Y419100D02*
D03*
X449580Y546100D02*
D03*
Y571500D02*
D03*
Y520700D02*
D03*
X210821D02*
D03*
X449580Y495300D02*
D03*
X210821Y444500D02*
D03*
Y546100D02*
D03*
X541020Y469900D02*
D03*
Y571500D02*
D03*
X779780D02*
D03*
Y419100D02*
D03*
X541020Y495300D02*
D03*
X779780Y546100D02*
D03*
X541020Y520700D02*
D03*
X779780Y469900D02*
D03*
X541020Y419100D02*
D03*
X779780Y495300D02*
D03*
Y520700D02*
D03*
Y596900D02*
D03*
Y444500D02*
D03*
X541020D02*
D03*
Y546100D02*
D03*
X779780Y266700D02*
D03*
Y241300D02*
D03*
Y215900D02*
D03*
Y190500D02*
D03*
Y165100D02*
D03*
Y139700D02*
D03*
Y88900D02*
D03*
Y114300D02*
D03*
X541020Y88900D02*
D03*
Y114300D02*
D03*
Y139700D02*
D03*
Y165100D02*
D03*
Y190500D02*
D03*
Y215900D02*
D03*
Y241300D02*
D03*
D54*
X210821Y266700D02*
D03*
Y596900D02*
D03*
X541020D02*
D03*
Y266700D02*
D03*
D55*
X855980Y698500D02*
D03*
D56*
X355600Y812800D02*
D03*
X558800Y762000D02*
D03*
X482102Y755650D02*
D03*
X635000Y762000D02*
D03*
X762000Y787400D02*
D03*
M02*
